<?xml version="1.0" standalone="no"?>
<!DOCTYPE svg PUBLIC "-//W3C//DTD SVG 1.1//EN" "http://www.w3.org/Graphics/SVG/1.1/DTD/svg11.dtd" >
<svg xmlns="http://www.w3.org/2000/svg" xmlns:xlink="http://www.w3.org/1999/xlink" version="1.1">
<metadata>
Created by FontForge 20170731 at Mon Dec 14 01:50:14 1998
 By Aleksey,,,
Copyright 1990-1998 Bitstream Inc.  All rights reserved.
</metadata>
<defs>
<font id="AvantGardeITCbyBT-DemiOblique" horiz-adv-x="1024" >
  <font-face 
    font-family="AvantGarde Bk BT"
    font-weight="700"
    font-style="oblique"
    font-stretch="normal"
    units-per-em="2048"
    panose-1="2 11 7 2 2 2 2 9 2 4"
    ascent="1556"
    descent="-492"
    x-height="1100"
    cap-height="1456"
    bbox="-342 -483 2564 1958"
    underline-thickness="195"
    underline-position="-486"
    slope="-11"
    unicode-range="U+0020-F002"
  />
<missing-glyph horiz-adv-x="1229" 
d="M102 -362v1806h1024v-1806h-1024zM217 -248h795v1577h-795v-1577z" />
    <glyph glyph-name=".notdef" horiz-adv-x="1229" 
d="M102 -362v1806h1024v-1806h-1024zM217 -248h795v1577h-795v-1577z" />
    <glyph glyph-name=".null" horiz-adv-x="0" 
 />
    <glyph glyph-name="nonmarkingreturn" horiz-adv-x="596" 
 />
    <glyph glyph-name="space" unicode=" " horiz-adv-x="596" 
 />
    <glyph glyph-name="exclam" unicode="!" horiz-adv-x="627" 
d="M383 379h-256l209 1077h256zM309 0h-256l53 274h256z" />
    <glyph glyph-name="quotedbl" unicode="&#x22;" horiz-adv-x="643" 
d="M395 1436h164v-557h-164v557zM86 1436h164v-557h-164v557z" />
    <glyph glyph-name="numbersign" unicode="#" horiz-adv-x="1575" 
d="M709 852l-91 -254h256l91 254h-256zM735 1460h191l-154 -436h250l156 436h190l-154 -436h291l-59 -172h-293l-90 -252h309l-61 -172h-307l-156 -434h-191l156 434h-252l-158 -434h-190l156 434h-299l61 172h297l90 252h-315l61 172h316z" />
    <glyph glyph-name="dollar" unicode="$" horiz-adv-x="1190" 
d="M530 -190h-219l47 247q-134 56 -201 151t-67 230q0 25 0.5 36.5t1.5 22.5l262 1q0 -6 -1 -18.5t-1 -18.5q0 -83 51 -129.5t142 -46.5q82 0 132 47t50 125q0 103 -163 206q-30 19 -46 29q-158 104 -222.5 193t-64.5 198q0 157 104 263.5t271 121.5l39 201h217l-41 -211
q122 -43 182 -131.5t60 -224.5v-27h-262v19q0 75 -36 115t-103 40t-111.5 -38.5t-44.5 -96.5q0 -85 168 -197q41 -27 64 -43q143 -99 203 -194.5t60 -216.5q0 -178 -115.5 -293t-312.5 -133z" />
    <glyph glyph-name="percent" unicode="%" horiz-adv-x="1796" 
d="M287 1126q0 -70 48.5 -117.5t119.5 -47.5q70 0 118 47.5t48 117.5q0 71 -48 119.5t-118 48.5q-71 0 -119.5 -48.5t-48.5 -119.5zM94 1126q0 72 27.5 137.5t79.5 116.5q50 51 115.5 78t138.5 27q72 0 136.5 -27t115.5 -78t78.5 -116.5t27.5 -137.5t-27 -137t-79 -117
q-51 -50 -115.5 -77t-136.5 -27q-73 0 -138.5 27t-115.5 77q-52 52 -79.5 117.5t-27.5 136.5zM1212 1485h162l-778 -1516h-162zM1182 330q0 -71 48.5 -119.5t119.5 -48.5q70 0 119 48.5t49 119.5q0 70 -49 119t-119 49q-71 0 -119.5 -49t-48.5 -119zM991 330q0 72 27 137.5
t78 116.5q50 50 115.5 77t138.5 27q72 0 137.5 -27t116.5 -77q50 -51 77 -116.5t27 -137.5q0 -73 -26.5 -138t-77.5 -116t-116.5 -78t-137.5 -27q-73 0 -138.5 27t-115.5 78q-51 50 -78 115.5t-27 138.5z" />
    <glyph glyph-name="ampersand" unicode="&#x26;" horiz-adv-x="1403" 
d="M569 936q86 28 138.5 84t52.5 115q0 51 -36.5 85.5t-92.5 34.5q-61 0 -103.5 -42.5t-42.5 -104.5q0 -39 20 -80.5t64 -91.5zM735 389l-262 277q-94 -55 -141 -120.5t-47 -139.5q0 -80 56 -137.5t134 -57.5q69 0 135 45.5t125 132.5zM315 829q-44 65 -66 127t-22 125
q0 174 117.5 290t298.5 116q162 0 263.5 -91.5t101.5 -236.5q0 -118 -73.5 -217t-211.5 -168l151 -160l209 340h258l-301 -514l275 -290l-195 -166l-221 233q-104 -131 -206.5 -188.5t-231.5 -57.5q-189 0 -311.5 119t-122.5 299q0 127 74 241t214 199z" />
    <glyph glyph-name="quotesingle" unicode="'" horiz-adv-x="334" 
d="M86 1436h164v-557h-164v557z" />
    <glyph glyph-name="parenleft" unicode="(" horiz-adv-x="606" 
d="M629 1221q-105 -10 -156 -76.5t-94 -284.5l-119 -608q-14 -69 -21.5 -124t-7.5 -91q0 -69 33.5 -121.5t95.5 -81.5l-53 -264q-181 49 -268.5 153.5t-87.5 272.5q0 47 9 118.5t28 166.5l133 682q2 12 7 37q48 249 142 343q72 71 175 106.5t235 35.5z" />
    <glyph glyph-name="parenright" unicode=")" horiz-adv-x="606" 
d="M-104 -166q106 10 157.5 77t93.5 282l117 610q16 75 23.5 129t7.5 86q0 69 -33.5 121.5t-95.5 81.5l51 264q181 -49 269.5 -155t88.5 -273q0 -46 -9 -117t-27 -166l-133 -681q-3 -14 -8 -39q-48 -249 -142 -343q-71 -70 -175.5 -105.5t-236.5 -35.5z" />
    <glyph glyph-name="asterisk" unicode="*" 
d="M592 907l-178 -252l-146 101l195 248l-289 79l55 170l277 -92v295h172v-295l272 92l60 -170l-287 -77l190 -250l-143 -105z" />
    <glyph glyph-name="plus" unicode="+" horiz-adv-x="1706" 
d="M768 1221h170v-527h514v-166h-514v-528h-170v528h-514v166h514v527z" />
    <glyph glyph-name="comma" unicode="," horiz-adv-x="586" 
d="M51 -129q49 11 75 42t34 87h-94l53 274h256l-53 -272q-30 -157 -95.5 -217.5t-206.5 -69.5z" />
    <glyph glyph-name="hyphen" unicode="-" horiz-adv-x="696" 
d="M631 668l-45 -236h-520l45 236h520z" />
    <glyph glyph-name="period" unicode="." horiz-adv-x="596" 
d="M322 0h-256l53 274h256z" />
    <glyph glyph-name="slash" unicode="/" horiz-adv-x="569" 
d="M127 -190h-172l477 1646h170z" />
    <glyph glyph-name="zero" unicode="0" horiz-adv-x="1190" 
d="M408 946l-78 -385q-10 -47 -15.5 -84.5t-5.5 -60.5q0 -97 55.5 -149t159.5 -52q110 0 166 61.5t90 231.5l78 385q12 53 17.5 89t5.5 58q0 97 -56.5 149t-160.5 52q-108 0 -165 -63t-91 -232zM143 1012q46 234 181.5 354.5t353.5 120.5q222 0 349.5 -111t127.5 -303
q0 -37 -4 -75t-12 -76l-95 -478q-46 -233 -181 -354t-351 -121q-223 0 -350 111t-127 305q0 30 4 66t12 81z" />
    <glyph glyph-name="one" unicode="1" horiz-adv-x="1190" 
d="M735 0h-278l217 1104l-369 -389l-168 159l522 582h359z" />
    <glyph glyph-name="two" unicode="2" horiz-adv-x="1190" 
d="M965 0h-981l49 252l479 410q192 163 249.5 246t57.5 167q0 75 -43 119.5t-114 44.5q-97 0 -155 -66t-77 -196h-258q27 235 157.5 371.5t327.5 136.5q200 0 325.5 -113t125.5 -291q0 -142 -91 -280t-292 -299l-319 -256h606z" />
    <glyph glyph-name="three" unicode="3" horiz-adv-x="1190" 
d="M57 452l265 1v-23q0 -102 51 -157.5t145 -55.5q109 0 173.5 65t64.5 175q0 116 -73 171.5t-224 55.5l47 250q8 -1 18 -1.5t29 -0.5q106 0 166.5 47.5t60.5 130.5q0 64 -38 102.5t-101 38.5q-61 0 -103 -36.5t-65 -110.5h-258q43 196 150.5 288.5t291.5 92.5
q179 0 289.5 -100.5t110.5 -262.5q0 -131 -72 -215.5t-207 -111.5q126 -49 190 -140.5t64 -220.5q0 -196 -148 -329.5t-368 -133.5q-213 0 -338 113.5t-125 306.5q0 10 1 23.5t3 37.5z" />
    <glyph glyph-name="four" unicode="4" horiz-adv-x="1190" 
d="M637 477l127 637l-494 -637h367zM819 0h-274l45 240h-627l49 256l779 960h311l-191 -979h168l-47 -237h-168z" />
    <glyph glyph-name="five" unicode="5" horiz-adv-x="1190" 
d="M459 950q54 21 99.5 31t84.5 10q185 0 305.5 -131.5t120.5 -335.5q0 -240 -154 -396.5t-393 -156.5q-229 0 -359 120.5t-130 332.5v22h243v-16q0 -100 67 -162.5t173 -62.5q125 0 201 88.5t76 236.5q0 102 -68.5 170t-169.5 68q-74 0 -130 -28.5t-97 -88.5l-228 74
l283 731h725l-47 -237h-504z" />
    <glyph glyph-name="six" unicode="6" horiz-adv-x="1190" 
d="M829 532q0 112 -70 179t-186 67q-126 0 -206 -86.5t-80 -222.5q0 -113 68 -182.5t177 -69.5q131 0 214 88.5t83 226.5zM745 1456h330l-436 -465q214 -10 337.5 -130.5t123.5 -317.5q0 -244 -160 -408t-399 -164q-224 0 -368 135.5t-144 342.5q0 151 68.5 284t248.5 316z
" />
    <glyph glyph-name="seven" unicode="7" horiz-adv-x="1190" 
d="M348 0h-301l766 1219h-592l45 237h897l-45 -237z" />
    <glyph glyph-name="eight" unicode="8" horiz-adv-x="1190" 
d="M653 1253q-78 0 -130 -54t-52 -138q0 -64 43 -105t113 -41q78 0 127 52.5t49 136.5q0 67 -41.5 108t-108.5 41zM563 684q-106 0 -173.5 -73t-67.5 -189q0 -90 58 -147.5t148 -57.5q105 0 178.5 74t73.5 180q0 97 -58.5 155t-158.5 58zM344 815q-70 59 -103.5 121.5
t-33.5 132.5q0 174 127.5 295t316.5 121q185 0 299.5 -100t114.5 -259q0 -116 -58.5 -195.5t-179.5 -125.5q110 -47 165 -133t55 -211q0 -207 -151 -348.5t-374 -141.5q-212 0 -341.5 119.5t-129.5 312.5q0 140 73.5 243t219.5 169z" />
    <glyph glyph-name="nine" unicode="9" horiz-adv-x="1190" 
d="M362 924q0 -113 69.5 -180.5t184.5 -67.5q127 0 208 87.5t81 223.5q0 113 -68.5 182.5t-179.5 69.5q-130 0 -212.5 -88t-82.5 -227zM444 0h-329l436 463q-213 11 -336 131.5t-123 318.5q0 244 159.5 408t399.5 164q224 0 368 -135.5t144 -341.5q0 -150 -68.5 -283
t-250.5 -317z" />
    <glyph glyph-name="colon" unicode=":" horiz-adv-x="627" 
d="M485 825h-256l54 275h256zM322 0h-256l53 274h256z" />
    <glyph glyph-name="semicolon" unicode=";" horiz-adv-x="627" 
d="M485 825h-256l54 275h256zM51 -129q49 11 75 42t34 87h-94l53 274h256l-53 -272q-30 -157 -95.5 -217.5t-206.5 -69.5z" />
    <glyph glyph-name="less" unicode="&#x3c;" horiz-adv-x="1706" 
d="M1442 1176v-185l-934 -381l934 -381v-182l-1178 483v160z" />
    <glyph glyph-name="equal" unicode="=" horiz-adv-x="1706" 
d="M254 487h1198v-165h-1198v165zM254 901h1198v-168h-1198v168z" />
    <glyph glyph-name="greater" unicode="&#x3e;" horiz-adv-x="1706" 
d="M264 1176l1178 -486v-160l-1178 -483v182l934 381l-934 381v185z" />
    <glyph glyph-name="question" unicode="?" horiz-adv-x="1042" 
d="M344 1037l-246 -1q19 216 144 332.5t340 116.5q195 0 313.5 -108t118.5 -285q0 -109 -50 -198.5t-178 -199.5q-7 -6 -20 -18q-192 -163 -209 -297h-252q17 131 68.5 224.5t183.5 209.5q19 17 56 47q147 120 147 213q0 79 -56.5 129.5t-146.5 50.5t-147 -58t-66 -158z
M485 0h-256l54 274h256z" />
    <glyph glyph-name="at" unicode="@" horiz-adv-x="2048" 
d="M1174 283q-55 -87 -128 -127.5t-176 -40.5q-152 0 -232.5 86.5t-80.5 249.5q0 233 138 395t333 162q89 0 149 -34.5t99 -107.5l55 107h154l-148 -586q-1 -5 -2 -12q-6 -28 -6 -37q0 -38 26.5 -61t69.5 -23q51 0 107.5 30.5t105.5 84.5q72 76 110 177.5t38 215.5
q0 253 -187 411t-489 158q-138 0 -256 -31t-215 -94q-181 -113 -279 -291t-98 -395q0 -312 209.5 -499t558.5 -187q166 0 323.5 49t291.5 142l67 -99q-149 -113 -318.5 -170t-355.5 -57q-192 0 -351 48t-281 142q-155 118 -231.5 275.5t-76.5 357.5q0 165 52 313.5
t153 272.5q147 179 353.5 272t459.5 93q166 0 315 -45.5t255 -127.5q132 -102 198 -235.5t66 -300.5q0 -162 -65 -302t-185 -237q-69 -55 -150 -83.5t-168 -28.5q-106 0 -157 40.5t-51 125.5v4zM1233 707q-14 84 -61.5 130t-122.5 46q-127 0 -217.5 -128.5t-90.5 -310.5
q0 -98 45.5 -151t128.5 -53q90 0 163.5 66.5t99.5 172.5z" />
    <glyph glyph-name="A" unicode="A" horiz-adv-x="1286" 
d="M-176 0l817 1456h305l316 -1456h-291l-66 307h-598l-170 -307h-313zM850 578l-111 520l-284 -520h395z" />
    <glyph glyph-name="B" unicode="B" horiz-adv-x="1128" 
d="M-20 0l282 1456h430q181 0 284 -93t103 -253q0 -119 -63.5 -208t-190.5 -148q92 -46 140.5 -129t48.5 -193q0 -101 -45 -190t-127 -152q-65 -49 -149 -69.5t-251 -20.5h-462zM311 236h119q156 0 221.5 57.5t65.5 191.5q0 98 -57.5 140.5t-194.5 42.5q-28 0 -42 -0.5
t-28 -2.5zM439 893q30 -3 44.5 -3.5t26.5 -0.5q131 0 201.5 51t70.5 145q0 76 -55.5 111t-175.5 35q-8 0 -23.5 -1t-23.5 -1z" />
    <glyph glyph-name="C" unicode="C" horiz-adv-x="1554" 
d="M1475 461q-95 -231 -291.5 -360.5t-452.5 -129.5q-131 0 -242.5 36t-201.5 108q-122 95 -187 233.5t-65 300.5q0 166 63 320t181 276q110 115 261.5 177.5t321.5 62.5q252 0 434 -137t242 -371h-313q-54 117 -152 177t-237 60q-103 0 -189 -37t-162 -114
q-79 -81 -118 -178t-39 -211q0 -194 116.5 -315t300.5 -121q123 0 228.5 56.5t185.5 166.5h316z" />
    <glyph glyph-name="D" unicode="D" horiz-adv-x="1421" 
d="M626 1225h-120l-195 -994h156q262 0 429 159t167 409q0 202 -114 313t-323 113zM688 1456q320 0 496 -166t176 -467q0 -373 -227.5 -598t-604.5 -225h-546l280 1456h426z" />
    <glyph glyph-name="E" unicode="E" horiz-adv-x="1028" 
d="M-27 0l283 1456h813l-47 -248h-526l-68 -346h526l-49 -246h-524l-72 -370h527l-50 -246h-813z" />
    <glyph glyph-name="F" unicode="F" horiz-adv-x="1010" 
d="M-25 0l283 1456h784l-49 -248h-497l-68 -346h498l-47 -246h-498l-119 -616h-287z" />
    <glyph glyph-name="G" unicode="G" horiz-adv-x="1602" 
d="M1544 760q-29 -364 -251 -577.5t-572 -213.5q-301 0 -482.5 181.5t-181.5 482.5q0 149 37.5 278.5t110.5 235.5q112 162 285.5 250t379.5 88q255 0 424 -123t224 -346h-314q-39 93 -131.5 145.5t-218.5 52.5q-222 0 -365 -156.5t-143 -404.5q0 -188 110 -299.5
t294 -111.5q142 0 259 71t183 197h-590l49 250h893z" />
    <glyph glyph-name="H" unicode="H" horiz-adv-x="1280" 
d="M-18 0l282 1456h285l-113 -582h463l113 582h286l-282 -1456h-287l123 627h-463l-123 -627h-284z" />
    <glyph glyph-name="I" unicode="I" horiz-adv-x="512" 
d="M-25 0l283 1456h285l-283 -1456h-285z" />
    <glyph glyph-name="J" unicode="J" horiz-adv-x="1014" 
d="M1036 1456l-205 -1077q-38 -202 -156 -305t-310 -103q-195 0 -301.5 97t-106.5 274q0 22 0.5 34t1.5 21h277v-12q0 -74 34.5 -111.5t102.5 -37.5q77 0 120.5 48.5t65.5 161.5l195 1010h282z" />
    <glyph glyph-name="K" unicode="K" horiz-adv-x="1171" 
d="M387 672l-129 -672h-289l283 1456h289l-113 -573l547 573h334l-666 -692l455 -764h-318z" />
    <glyph glyph-name="L" unicode="L" horiz-adv-x="991" 
d="M20 0l283 1456h285l-236 -1206h479l-49 -250h-762z" />
    <glyph glyph-name="M" unicode="M" horiz-adv-x="1835" 
d="M1866 1456l-283 -1456h-278l219 1178l-586 -1178h-317l-134 1178l-227 -1178h-285l285 1456h442l129 -1106l570 1106h465z" />
    <glyph glyph-name="N" unicode="N" horiz-adv-x="1432" 
d="M-20 0l284 1456h371l338 -1128l221 1128h270l-284 -1456h-371l-334 1135l-227 -1135h-268z" />
    <glyph glyph-name="O" unicode="O" horiz-adv-x="1602" 
d="M57 633q0 194 62 353.5t182 275.5q116 111 261 167t317 56q303 0 484 -181.5t181 -486.5q0 -190 -62.5 -350.5t-181.5 -273.5q-115 -111 -261 -167.5t-318 -56.5q-301 0 -482.5 182t-181.5 482zM346 653q0 -186 109.5 -299.5t289.5 -113.5q226 0 368 156t142 405
q0 190 -108.5 301.5t-292.5 111.5q-222 0 -365 -156.5t-143 -404.5z" />
    <glyph glyph-name="P" unicode="P" horiz-adv-x="1147" 
d="M412 821h145q134 0 202 54.5t68 160.5q0 95 -65.5 140t-204.5 45q-26 0 -40 -0.5t-28 -2.5zM252 0h-287l283 1456h387q234 0 360.5 -110.5t126.5 -313.5q0 -103 -38 -190.5t-111 -149.5q-80 -67 -172.5 -96t-253.5 -29h-185z" />
    <glyph glyph-name="Q" unicode="Q" horiz-adv-x="1602" 
d="M1499 211l-45 -231q-41 -7 -58 -9t-28 -2q-66 0 -128.5 25t-115.5 72q-92 -50 -191 -73.5t-214 -23.5q-300 0 -483 182t-183 482q0 193 62.5 353.5t181.5 275.5q116 111 261 167t316 56q305 0 485.5 -182t180.5 -488q0 -172 -52 -317.5t-159 -272.5q29 -16 51.5 -23
t42.5 -7q15 0 34.5 4t41.5 12zM942 279q-104 97 -218 146.5t-235 49.5q-35 0 -61.5 -2.5t-48.5 -7.5q39 -104 138 -164.5t231 -60.5q49 0 97.5 9.5t96.5 29.5zM1118 412q69 74 101 168.5t32 220.5q0 190 -107.5 301.5t-291.5 111.5q-215 0 -358 -146t-152 -377q64 5 102 7
t66 2q175 0 327 -72t281 -216z" />
    <glyph glyph-name="R" unicode="R" horiz-adv-x="1247" 
d="M414 762q13 -1 29.5 -1.5t48.5 -0.5q213 0 315 62t102 192q0 96 -65 148t-185 52q-32 0 -72 -1.5t-87 -4.5zM711 545l333 -545h-315l-338 647l-125 -647h-284l282 1456h408q256 0 395 -113t139 -319q0 -205 -134 -335.5t-361 -143.5z" />
    <glyph glyph-name="S" unicode="S" horiz-adv-x="1100" 
d="M1060 1063h-280v20q0 77 -41 121.5t-110 44.5q-71 0 -118.5 -47t-47.5 -115q0 -91 207 -218q50 -30 78 -48q133 -85 185 -172t52 -217q0 -201 -138.5 -331t-352.5 -130q-226 0 -345.5 119.5t-119.5 343.5v33h278q0 -6 -1 -16t-1 -15q0 -95 50 -149t139 -54q86 0 141 56
t55 143q0 61 -28 102.5t-121 98.5l-54 30q-150 85 -217 158q-47 51 -72.5 115.5t-25.5 134.5q0 185 128.5 299.5t336.5 114.5q199 0 312.5 -100.5t113.5 -274.5q0 -19 -0.5 -28.5t-2.5 -18.5z" />
    <glyph glyph-name="T" unicode="T" horiz-adv-x="905" 
d="M160 0l243 1210h-307l47 246h869l-47 -246h-277l-244 -1210h-284z" />
    <glyph glyph-name="U" unicode="U" horiz-adv-x="1255" 
d="M1100 578q-67 -348 -196.5 -477.5t-391.5 -129.5q-206 0 -328.5 102t-122.5 273q0 49 7 107.5t20 124.5l172 878h281l-160 -815q-10 -49 -15.5 -96t-5.5 -88q0 -96 52 -149.5t145 -53.5q112 0 171 77.5t110 338.5l153 786h277z" />
    <glyph glyph-name="V" unicode="V" horiz-adv-x="1223" 
d="M281 0l-238 1456h287l180 -1118l588 1118h291l-766 -1456h-342z" />
    <glyph glyph-name="W" unicode="W" horiz-adv-x="1864" 
d="M88 1456h289l-6 -1132l512 1132h336l8 -1165l495 1165h299l-675 -1456h-347l-16 1147l-506 -1147h-354z" />
    <glyph glyph-name="X" unicode="X" horiz-adv-x="1313" 
d="M635 524l-459 -524h-348l666 762l-359 694h301l266 -506l439 506h329l-624 -737l379 -719h-310z" />
    <glyph glyph-name="Y" unicode="Y" horiz-adv-x="1161" 
d="M291 0l112 551l-305 905h283l199 -627l421 627h322l-641 -905l-104 -551h-287z" />
    <glyph glyph-name="Z" unicode="Z" horiz-adv-x="1200" 
d="M-23 0l43 227l777 981h-572l47 248h920l-43 -221l-780 -979h647l-49 -256h-990z" />
    <glyph glyph-name="bracketleft" unicode="[" horiz-adv-x="606" 
d="M168 -221h186l-37 -189h-467l363 1866h467l-37 -190h-186z" />
    <glyph glyph-name="backslash" unicode="\" horiz-adv-x="569" 
d="M152 1456h172l118 -1646h-172z" />
    <glyph glyph-name="bracketright" unicode="]" horiz-adv-x="606" 
d="M354 1266h-186l37 190h467l-363 -1866h-467l37 189h187z" />
    <glyph glyph-name="asciicircum" unicode="^" horiz-adv-x="2048" 
d="M915 1460h218l495 -561h-207l-397 397l-399 -397h-207z" />
    <glyph glyph-name="underscore" unicode="_" 
d="M0 -311h1024v-172h-1024v172z" />
    <glyph glyph-name="grave" unicode="`" 
d="M721 1243h-117l-303 350h213z" />
    <glyph glyph-name="a" unicode="a" horiz-adv-x="1319" 
d="M844 0l14 76q-57 -53 -127 -79t-156 -26q-228 0 -370 149.5t-142 391.5q0 102 30.5 195t92.5 180q83 115 204.5 176t266.5 61q110 0 203 -42t164 -124l27 142h262l-219 -1100h-250zM668 893q-143 0 -247 -110.5t-104 -266.5q0 -137 79.5 -221t209.5 -84
q145 0 245.5 110.5t100.5 272.5q0 131 -80.5 215t-203.5 84z" />
    <glyph glyph-name="b" unicode="b" horiz-adv-x="1319" 
d="M354 516q0 -137 79 -221t206 -84q147 0 247.5 110t100.5 271q0 134 -80 215.5t-213 81.5q-143 0 -241.5 -107t-98.5 -266zM-6 0l282 1456h250l-84 -426q63 46 137.5 69t159.5 23q217 0 359.5 -148.5t142.5 -373.5q0 -129 -46.5 -247t-133.5 -208q-83 -86 -194 -130
t-246 -44q-126 0 -208 34t-147 112l-26 -117h-246z" />
    <glyph glyph-name="c" unicode="c" horiz-adv-x="1200" 
d="M1151 385q-66 -196 -216.5 -305t-356.5 -109q-235 0 -384 148.5t-149 382.5q0 140 55 264.5t158 216.5q78 70 177 106.5t212 36.5q206 0 347.5 -111.5t181.5 -305.5h-261q-38 87 -107.5 132.5t-164.5 45.5q-151 0 -247.5 -106.5t-96.5 -274.5q0 -131 81 -213t210 -82
q92 0 165 44t124 130h272z" />
    <glyph glyph-name="d" unicode="d" horiz-adv-x="1319" 
d="M844 0l14 76q-57 -53 -127 -79t-156 -26q-228 0 -370 149.5t-142 391.5q0 102 30.5 195t92.5 180q83 115 204.5 176t266.5 61q110 0 203 -42t164 -124l94 498h258l-280 -1456h-252zM668 893q-143 0 -247 -110.5t-104 -266.5q0 -137 79.5 -221t209.5 -84
q145 0 245.5 110.5t100.5 272.5q0 131 -80.5 215t-203.5 84z" />
    <glyph glyph-name="e" unicode="e" horiz-adv-x="1241" 
d="M324 672h598q-28 103 -105 160t-190 57q-103 0 -183.5 -57.5t-119.5 -159.5zM1130 346q-74 -181 -219 -278t-342 -97q-232 0 -381 149.5t-149 381.5q0 139 56 263.5t159 217.5q79 71 179 108t214 37q235 0 384 -147.5t149 -380.5q0 -29 -3 -64.5t-10 -78.5h-870
q24 -121 96 -183.5t187 -62.5q82 0 148.5 33.5t119.5 101.5h282z" />
    <glyph glyph-name="f" unicode="f" horiz-adv-x="653" 
d="M63 0l168 868h-159l45 230h159q30 195 135 285t306 90q28 0 91 -4l7 -1l-45 -235h-6q-47 4 -66 4q-82 0 -119 -31t-49 -108h166l-45 -230h-166l-170 -868h-252z" />
    <glyph glyph-name="g" unicode="g" horiz-adv-x="1319" 
d="M1090 -14q-44 -212 -176 -313t-367 -101q-210 0 -354 98.5t-168 257.5h264q35 -71 103 -106t169 -35q137 0 205.5 66.5t91.5 222.5q-57 -53 -127 -79t-156 -26q-228 0 -370 149.5t-142 391.5q0 102 30.5 195t92.5 180q83 115 204.5 176t266.5 61q110 0 203 -42t164 -124
l27 142h262zM668 893q-143 0 -247 -110.5t-104 -266.5q0 -137 79.5 -221t209.5 -84q145 0 245.5 110.5t100.5 272.5q0 131 -80.5 215t-203.5 84z" />
    <glyph glyph-name="h" unicode="h" horiz-adv-x="1194" 
d="M2 0l283 1456h256l-86 -434q59 48 123.5 72t136.5 24q193 0 293 -91t100 -267q0 -33 -9.5 -101.5t-27.5 -158.5l-96 -500h-264l112 581q7 34 11 68t4 66q0 87 -44 132.5t-128 45.5q-121 0 -194 -82t-107 -258l-107 -553h-256z" />
    <glyph glyph-name="i" unicode="i" horiz-adv-x="479" 
d="M2 0l213 1100h254l-213 -1100h-254zM238 1217l47 239h254l-47 -239h-254z" />
    <glyph glyph-name="j" unicode="j" horiz-adv-x="494" 
d="M244 1217l45 239h274l-45 -239h-274zM-242 -358l47 239h19q95 0 135 38t64 165l196 1016h275l-215 -1118q-35 -184 -133.5 -264t-286.5 -80q-32 0 -94 3z" />
    <glyph glyph-name="k" unicode="k" horiz-adv-x="1053" 
d="M-23 0l283 1456h268l-163 -835l460 479h326l-512 -531l354 -569h-303l-338 551l-106 -551h-269z" />
    <glyph glyph-name="l" unicode="l" horiz-adv-x="479" 
d="M0 0l283 1456h256l-283 -1456h-256z" />
    <glyph glyph-name="m" unicode="m" horiz-adv-x="1911" 
d="M442 1100l-24 -105q63 63 138 94t165 31q124 0 212 -46.5t136 -137.5q75 92 167 138t200 46q179 0 280 -95t101 -265q0 -77 -33 -238q-3 -15 -4 -22l-97 -500h-264l113 582q7 34 10.5 67t3.5 66q0 87 -43.5 132.5t-128.5 45.5q-120 0 -194 -83t-107 -257l-106 -553h-265
l113 581q7 34 10.5 67.5t3.5 66.5q0 87 -43.5 132.5t-128.5 45.5q-120 0 -193 -82t-108 -258l-112 -553h-250l219 1100h229z" />
    <glyph glyph-name="n" unicode="n" horiz-adv-x="1194" 
d="M449 1100l-23 -105q63 62 133.5 92.5t149.5 30.5q198 0 298.5 -90t100.5 -268q0 -33 -9.5 -101.5t-27.5 -158.5l-96 -500h-264l112 581q7 34 11 68t4 66q0 87 -44 132.5t-128 45.5q-121 0 -194 -82t-107 -258l-113 -553h-254l223 1100h228z" />
    <glyph glyph-name="o" unicode="o" horiz-adv-x="1241" 
d="M641 893q-146 0 -244 -110t-98 -277q0 -129 80.5 -212t206.5 -83q147 0 248.5 110t101.5 271q0 136 -81 218.5t-214 82.5zM45 502q0 143 56 268.5t161 218.5q80 71 180 107.5t215 36.5q234 0 383.5 -149t149.5 -382q0 -131 -46.5 -248.5t-133.5 -208.5
q-82 -84 -193.5 -129t-241.5 -45q-232 0 -381 149.5t-149 381.5z" />
    <glyph glyph-name="p" unicode="p" horiz-adv-x="1319" 
d="M354 516q0 -137 79 -221t206 -84q147 0 247.5 110t100.5 271q0 134 -80 215.5t-213 81.5q-143 0 -241.5 -107t-98.5 -266zM-72 -356l281 1456h248l-15 -70q63 46 137.5 69t159.5 23q217 0 359.5 -148.5t142.5 -373.5q0 -129 -46.5 -247t-133.5 -208q-83 -86 -194 -130
t-246 -44q-126 0 -208 34t-147 112l-92 -473h-246z" />
    <glyph glyph-name="q" unicode="q" horiz-adv-x="1305" 
d="M1305 1128l-287 -1484h-252l86 426q-63 -46 -137.5 -69.5t-159.5 -23.5q-217 0 -359.5 148.5t-142.5 374.5q0 130 46 247.5t132 206.5q84 87 195.5 131.5t245.5 44.5q125 0 208 -34.5t148 -112.5l29 145h248zM940 584q0 137 -78.5 221t-206.5 84q-147 0 -248.5 -110.5
t-101.5 -270.5q0 -134 81 -215.5t214 -81.5q144 0 242 107t98 266z" />
    <glyph glyph-name="r" unicode="r" horiz-adv-x="782" 
d="M6 0l213 1100h234l-29 -146q70 92 161.5 135.5t215.5 43.5h8l-49 -258q-177 -3 -260 -71.5t-119 -248.5l-109 -555h-266z" />
    <glyph glyph-name="s" unicode="s" horiz-adv-x="901" 
d="M25 362h260v-6q0 -72 33.5 -111.5t93.5 -39.5q47 0 77.5 29.5t30.5 74.5q0 37 -24 67.5t-82 67.5q-31 21 -85 54q-99 62 -120 86q-41 46 -59.5 93t-18.5 101q0 147 107 246.5t268 99.5q153 0 248.5 -91t95.5 -238v-17l-260 1q-2 61 -26.5 92.5t-69.5 31.5
q-41 0 -70 -26.5t-29 -63.5q0 -58 129 -137q21 -13 34 -21q130 -81 181.5 -152t51.5 -163q0 -158 -109 -263.5t-274 -105.5q-179 0 -282 94.5t-103 258.5q0 5 1 18t1 20z" />
    <glyph glyph-name="t" unicode="t" horiz-adv-x="674" 
d="M76 0l168 870h-148l45 230h148l67 344h265l-66 -344h158l-43 -230h-160l-170 -870h-264z" />
    <glyph glyph-name="u" unicode="u" horiz-adv-x="1194" 
d="M768 90q-64 -61 -143.5 -91t-178.5 -30q-171 0 -265.5 93.5t-94.5 263.5q0 42 8.5 105.5t26.5 156.5l98 512h266l-114 -596q-9 -42 -13 -74.5t-4 -58.5q0 -87 44.5 -131.5t129.5 -44.5q121 0 194 81t107 256l113 568h252l-219 -1100h-227z" />
    <glyph glyph-name="v" unicode="v" horiz-adv-x="1053" 
d="M236 0l-213 1100h260l141 -778l418 778h286l-606 -1100h-286z" />
    <glyph glyph-name="w" unicode="w" horiz-adv-x="1507" 
d="M129 0l-78 1100h244l29 -772l358 772h242l49 -764l364 764h260l-559 -1100h-250l-71 737l-334 -737h-254z" />
    <glyph glyph-name="x" unicode="x" horiz-adv-x="1028" 
d="M367 1100l174 -346l290 346h310l-471 -539l301 -561h-305l-183 365l-305 -365h-313l485 573l-284 527h301z" />
    <glyph glyph-name="y" unicode="y" horiz-adv-x="1053" 
d="M-45 -356l283 475l-199 981h272l131 -692l420 692h287l-897 -1456h-297z" />
    <glyph glyph-name="z" unicode="z" horiz-adv-x="934" 
d="M-37 0l41 227l563 637h-444l43 236h780l-39 -221l-565 -643h504l-41 -236h-842z" />
    <glyph glyph-name="braceleft" unicode="{" 
d="M874 1477v-179q-8 0 -24 1t-23 1q-109 0 -147.5 -41.5t-38.5 -173.5v-241q0 -155 -44 -220.5t-159 -93.5q114 -27 158.5 -92.5t44.5 -220.5v-240q0 -132 39.5 -174.5t148.5 -42.5q7 0 22 1t23 1v-176h-63q-102 0 -165.5 12t-106.5 37q-57 34 -80 96t-23 203v248
q0 144 -52.5 203t-178.5 59q-7 0 -21.5 -1t-21.5 -1v179q7 0 21.5 -1.5t21.5 -1.5q126 0 178.5 59t52.5 202v247q0 145 23 206.5t80 94.5q44 27 109 38.5t181 11.5h45z" />
    <glyph glyph-name="bar" unicode="|" 
d="M424 1565h178v-2048h-178v2048z" />
    <glyph glyph-name="braceright" unicode="}" 
d="M152 1477h45q115 0 179.5 -11.5t108.5 -38.5q57 -33 80 -95t23 -206v-247q0 -144 52 -202.5t179 -58.5q6 0 21 1.5t22 1.5v-179q-7 0 -21.5 1t-21.5 1q-126 0 -178.5 -59t-52.5 -203v-248q0 -143 -23 -204t-80 -95q-43 -26 -108 -37.5t-180 -11.5h-45v176q8 0 23 -1
t22 -1q109 0 147.5 42t38.5 175v240q0 153 45 219t160 94q-115 28 -160 93.5t-45 220.5v241q0 132 -38 173.5t-146 41.5q-7 0 -23 -1t-24 -1v179z" />
    <glyph glyph-name="asciitilde" unicode="~" horiz-adv-x="1706" 
d="M1530 784v-184q-103 -71 -197.5 -106t-183.5 -35q-44 0 -92.5 8.5t-98.5 26.5q-25 8 -76 26q-212 74 -319 74q-82 0 -174 -38t-211 -122v187q106 72 202 107.5t185 35.5q62 0 125.5 -12t168.5 -48q13 -4 42 -15q164 -58 250 -58q85 0 177 37t202 116z" />
    <glyph glyph-name="euro" horiz-adv-x="1190" 
d="M807 633l-62 -176h-356q0 -6 -1 -16t-1 -15q0 -107 52 -159t159 -52q97 0 150.5 45.5t85.5 157.5h280q-51 -222 -184.5 -335.5t-343.5 -113.5q-221 0 -346 114t-125 316q0 23 0.5 35t0.5 23h-143l62 176h110l31 164h-137l61 176h111q51 265 183 389.5t358 124.5
q223 0 350 -112.5t127 -315.5h-275q0 84 -56 133t-161 49q-108 0 -165 -60t-87 -208h410l-61 -176h-383l-31 -164h387z" />
    <glyph glyph-name="euro" unicode="&#x20ac;" horiz-adv-x="1190" 
d="M807 633l-62 -176h-356q0 -6 -1 -16t-1 -15q0 -107 52 -159t159 -52q97 0 150.5 45.5t85.5 157.5h280q-51 -222 -184.5 -335.5t-343.5 -113.5q-221 0 -346 114t-125 316q0 23 0.5 35t0.5 23h-143l62 176h110l31 164h-137l61 176h111q51 265 183 389.5t358 124.5
q223 0 350 -112.5t127 -315.5h-275q0 84 -56 133t-161 49q-108 0 -165 -60t-87 -208h410l-61 -176h-383l-31 -164h387z" />
    <glyph glyph-name="nonbreakingspace" unicode="&#xa0;" horiz-adv-x="1190" 
 />
    <glyph glyph-name="exclamdown" unicode="&#xa1;" horiz-adv-x="627" 
d="M254 1075h256l-209 -1075h-256zM328 1456h256l-54 -276h-256z" />
    <glyph glyph-name="cent" unicode="&#xa2;" horiz-adv-x="1190" 
d="M586 1298l41 209h221l-45 -233q135 -52 215 -152.5t106 -251.5h-239q-34 100 -100 151.5t-160 51.5q-142 0 -234 -106t-92 -273q0 -128 74.5 -209.5t191.5 -81.5q90 0 161 41t124 123h250q-60 -192 -193 -300.5t-323 -119.5l-45 -227h-222l50 248q-164 75 -242 199
t-78 311q0 258 150 431t389 189z" />
    <glyph glyph-name="sterling" unicode="&#xa3;" horiz-adv-x="1190" 
d="M-72 0l47 242h172q100 55 147.5 127t47.5 168q0 21 -3 50t-9 64h-277l47 240h152q-14 39 -20.5 76.5t-6.5 74.5q0 197 129.5 320t337.5 123q217 0 344.5 -114.5t128.5 -309.5h-261q-4 85 -55.5 130.5t-143.5 45.5t-149.5 -55t-57.5 -142q0 -31 11 -68t34 -81h383
l-47 -240h-283q13 -53 19 -88t6 -61q0 -80 -34 -144t-104 -116h135q102 0 156 72.5t62 217.5h262q-4 -110 -29.5 -193.5t-77.5 -150.5q-79 -103 -180 -145.5t-305 -42.5h-578z" />
    <glyph glyph-name="currency" unicode="&#xa4;" horiz-adv-x="1190" 
d="M807 633l-62 -176h-356q0 -6 -1 -16t-1 -15q0 -107 52 -159t159 -52q97 0 150.5 45.5t85.5 157.5h280q-51 -222 -184.5 -335.5t-343.5 -113.5q-221 0 -346 114t-125 316q0 23 0.5 35t0.5 23h-143l62 176h110l31 164h-137l61 176h111q51 265 183 389.5t358 124.5
q223 0 350 -112.5t127 -315.5h-275q0 84 -56 133t-161 49q-108 0 -165 -60t-87 -208h410l-61 -176h-383l-31 -164h387z" />
    <glyph glyph-name="yen" unicode="&#xa5;" horiz-adv-x="1161" 
d="M1319 1456l-291 -412h170l-33 -159h-254l-135 -189h352l-30 -159h-426l-101 -537h-274l106 537h-421l32 159h346l-63 189h-248l33 159h158l-136 412h277l199 -627l421 627h318z" />
    <glyph glyph-name="brokenbar" unicode="&#xa6;" 
d="M424 408h178v-758h-178v758zM424 1432h178v-758h-178v758z" />
    <glyph glyph-name="section" unicode="&#xa7;" 
d="M614 430q50 16 74.5 42t24.5 65q0 37 -23.5 73t-73.5 74l-192 152q-52 -11 -80.5 -39t-28.5 -68q0 -37 24.5 -71.5t86.5 -82.5zM37 111h231q0 -65 37.5 -100.5t106.5 -35.5q63 0 104 34t41 85q0 36 -28.5 73t-104.5 95l-184 141q-86 67 -126 138.5t-40 160.5
q0 93 61.5 159t173.5 93q-41 49 -61.5 100.5t-20.5 106.5q0 143 102.5 234.5t262.5 91.5q175 0 267.5 -80.5t92.5 -232.5v-29h-227q0 73 -33.5 108t-103.5 35q-57 0 -90 -26t-33 -70q0 -40 29 -79t116 -107l162 -125q90 -69 139.5 -152.5t49.5 -165.5q0 -100 -66.5 -168
t-177.5 -82q41 -44 61.5 -97t20.5 -114q0 -142 -110.5 -237.5t-280.5 -95.5q-181 0 -276 83t-95 240v19z" />
    <glyph glyph-name="dieresis" unicode="&#xa8;" 
d="M651 1290l49 228h205l-49 -228h-205zM303 1290l49 228h205l-49 -228h-205z" />
    <glyph glyph-name="copyright" unicode="&#xa9;" horiz-adv-x="1706" 
d="M1206 903h-166q-10 74 -60 114t-130 40q-99 0 -155 -86.5t-56 -239.5q0 -152 57.5 -234.5t163.5 -82.5q80 0 129 43.5t60 124.5h165q-7 -135 -106.5 -217t-253.5 -82q-183 0 -290 119t-107 323q0 208 109.5 331.5t291.5 123.5q147 0 243 -77t105 -200zM854 1362
q-130 0 -243 -46.5t-201 -135.5q-90 -92 -138.5 -208t-48.5 -241q0 -126 48 -240t139 -204q90 -91 204.5 -139t239.5 -48t240 48.5t209 140.5q89 88 135.5 200.5t46.5 241.5t-47 243.5t-135 203.5q-91 90 -205 137t-244 47zM852 1470q152 0 286 -55t240 -162
q105 -105 160 -238.5t55 -283.5q0 -153 -54.5 -286t-158.5 -234q-108 -107 -244.5 -164t-283.5 -57q-146 0 -280 56.5t-240 162.5q-107 106 -163 240.5t-56 281.5q0 145 57 280.5t164 243.5q105 107 235.5 161t282.5 54z" />
    <glyph glyph-name="ordfeminine" unicode="&#xaa;" horiz-adv-x="989" 
d="M633 686l10 53q-42 -37 -94.5 -55t-116.5 -18q-171 0 -278 105t-107 273q0 72 23 137t69 126q63 80 154 123t201 43q82 0 152.5 -29.5t121.5 -85.5l20 98h197l-164 -770h-188zM502 1311q-109 0 -186.5 -77.5t-77.5 -186.5q0 -96 59.5 -154.5t157.5 -58.5q108 0 184 77
t76 191q0 91 -60 150t-153 59z" />
    <glyph glyph-name="guillemotleft" unicode="&#xab;" horiz-adv-x="1112" 
d="M158 549l278 313h199l-279 -315l201 -309h-199zM545 549l280 313h197l-279 -315l201 -309h-196z" />
    <glyph glyph-name="logicalnot" unicode="&#xac;" horiz-adv-x="1706" 
d="M254 862h1198v-502h-166v336h-1032v166z" />
    <glyph glyph-name="sfthyphen" unicode="&#xad;" horiz-adv-x="696" 
d="M631 668l-45 -236h-520l45 236h520z" />
    <glyph glyph-name="registered" unicode="&#xae;" horiz-adv-x="1706" 
d="M729 1047v-261h117q100 0 146 30.5t46 96.5q0 69 -48 101.5t-152 32.5h-109zM551 1159h319q173 0 262 -57t89 -168q0 -91 -48 -150.5t-137 -78.5l185 -375h-199l-164 346h-129v-346h-178v829zM854 1362q-129 0 -240 -45.5t-200 -134.5q-92 -94 -141.5 -210t-49.5 -241
t47 -238.5t136 -203.5q90 -91 204 -140t234 -49q130 0 246.5 47t209.5 138q89 86 137 198.5t48 237.5q0 133 -45.5 247.5t-134.5 205.5q-93 92 -207.5 140t-243.5 48zM852 1470q153 0 288.5 -56t241.5 -165q103 -104 157 -236.5t54 -281.5q0 -153 -55.5 -287t-161.5 -237
q-108 -105 -243 -161t-281 -56q-147 0 -282.5 57.5t-241.5 165.5q-105 106 -160 239t-55 279q0 147 57.5 284t165.5 245q104 104 234.5 157t281.5 53z" />
    <glyph glyph-name="macron" unicode="&#xaf;" 
d="M317 1331l33 148h553l-33 -148h-553z" />
    <glyph glyph-name="degree" unicode="&#xb0;" horiz-adv-x="674" 
d="M338 1350q-77 0 -131.5 -54t-54.5 -131q0 -76 54.5 -131t131.5 -55t130.5 54.5t53.5 131.5t-53.5 131t-130.5 54zM338 1460q121 0 208 -87t87 -210q0 -121 -87 -208t-210 -87t-208 85.5t-85 209.5q0 125 86 211t209 86z" />
    <glyph glyph-name="plusminus" unicode="&#xb1;" horiz-adv-x="1706" 
d="M254 182h1198v-168h-1198v168zM768 1206h170v-334h514v-165h-514v-334h-170v334h-514v165h514v334z" />
    <glyph glyph-name="twosuperior" unicode="&#xb2;" horiz-adv-x="784" 
d="M637 582h-647l33 151l315 246q123 93 163 144.5t40 103.5q0 44 -28.5 71t-76.5 27q-63 0 -101 -39.5t-50 -118.5h-172q18 142 104.5 224t216.5 82q132 0 214.5 -67.5t82.5 -174.5q0 -86 -60 -169t-192 -179l-211 -154h400z" />
    <glyph glyph-name="threesuperior" unicode="&#xb3;" horiz-adv-x="784" 
d="M37 854h176v-14q0 -61 33.5 -94t95.5 -33q72 0 115 39t43 104q0 69 -48.5 102t-148.5 33l31 152q5 -1 12 -1.5t19 -0.5q70 0 109.5 28.5t39.5 77.5q0 39 -24.5 62.5t-65.5 23.5t-69 -22.5t-44 -67.5h-170q30 119 100.5 174.5t192.5 55.5q118 0 191 -60.5t73 -157.5
q0 -78 -47.5 -128.5t-136.5 -67.5q83 -29 125.5 -84t42.5 -133q0 -117 -98.5 -197t-243.5 -80q-140 0 -222.5 68t-82.5 184q0 6 1 18.5t1 18.5z" />
    <glyph glyph-name="acute" unicode="&#xb4;" 
d="M559 1243h-131l221 350h213z" />
    <glyph glyph-name="mu" unicode="&#xb5;" horiz-adv-x="1208" 
d="M205 1081h229l-125 -635q-6 -29 -9 -55t-3 -49q0 -96 46.5 -146.5t135.5 -50.5q122 0 193.5 88.5t111.5 292.5l109 555h225l-145 -739q-10 -49 -14.5 -81.5t-4.5 -51.5q0 -36 15.5 -51t52.5 -15q13 0 20.5 0.5t13.5 1.5l-32 -159q-32 -9 -68.5 -13t-81.5 -4
q-74 0 -111.5 31.5t-37.5 93.5v15q-41 -67 -108 -104.5t-146 -37.5q-81 0 -137.5 26t-97.5 83l-99 -506h-229z" />
    <glyph glyph-name="paragraph" unicode="&#xb6;" 
d="M969 1479v-99h-117v-1380h-129v1380h-168v-1380h-131v784q-168 6 -268.5 101t-100.5 245q0 158 107 253.5t284 95.5h523z" />
    <glyph glyph-name="glyph122" unicode="&#xb7;" horiz-adv-x="596" 
d="M166 729q0 57 40 96t97 39t96 -39t39 -96t-39 -97t-96 -40t-97 39.5t-40 97.5z" />
    <glyph glyph-name="cedilla" unicode="&#xb8;" 
d="M63 -426l43 111q68 -24 124 -35.5t100 -11.5q55 0 87 24t32 66q0 41 -35.5 58t-124.5 17h-39l67 197h91l-33 -94h8q112 0 169.5 -43.5t57.5 -126.5q0 -102 -66 -158.5t-184 -56.5q-56 0 -128 12.5t-169 40.5z" />
    <glyph glyph-name="onesuperior" unicode="&#xb9;" horiz-adv-x="784" 
d="M485 582h-184l143 661l-243 -233l-111 96l344 350h238z" />
    <glyph glyph-name="ordmasculine" unicode="&#xba;" horiz-adv-x="932" 
d="M481 1311q-109 0 -182.5 -77t-73.5 -194q0 -91 60.5 -148.5t154.5 -57.5q111 0 186.5 76.5t75.5 189.5q0 95 -60.5 153t-160.5 58zM35 1038q0 101 41 188t121 152q60 50 135.5 75.5t161.5 25.5q176 0 287.5 -104t111.5 -267q0 -93 -34.5 -175t-100.5 -145
q-61 -59 -145 -90.5t-181 -31.5q-174 0 -285.5 105t-111.5 267z" />
    <glyph glyph-name="guillemotright" unicode="&#xbb;" horiz-adv-x="1112" 
d="M571 549l-280 -311h-197l279 311l-201 313h197zM958 549l-278 -311h-199l279 311l-201 313h199z" />
    <glyph glyph-name="onequarter" unicode="&#xbc;" horiz-adv-x="1841" 
d="M1493 266l80 359l-311 -359h231zM1608 0h-172l26 135h-393l31 144l489 536h197l-121 -549h107l-29 -131h-107zM1286 1485h146l-875 -1516h-149zM465 639h-176l137 618l-233 -219l-105 90l328 326h225z" />
    <glyph glyph-name="onehalf" unicode="&#xbd;" horiz-adv-x="1841" 
d="M1700 0h-619l31 141l303 230q121 92 157 138t36 93q0 41 -28 66.5t-73 25.5q-60 0 -96.5 -37t-48.5 -110h-162q17 131 99.5 207.5t205.5 76.5q126 0 205.5 -63t79.5 -162q0 -79 -57 -156.5t-185 -168.5l-200 -144h381zM1286 1485h146l-875 -1516h-149zM465 639h-176
l137 618l-233 -219l-105 90l328 326h225z" />
    <glyph glyph-name="threequarters" unicode="&#xbe;" horiz-adv-x="1841" 
d="M1493 266l80 359l-311 -359h231zM1608 0h-172l26 135h-393l31 144l489 536h197l-121 -549h107l-29 -131h-107zM1286 1485h146l-875 -1516h-149zM37 893h166v-12q0 -58 32 -89.5t91 -31.5q67 0 108 37t41 98q0 65 -45.5 96t-140.5 31l30 139h29q67 0 105.5 27t38.5 74
q0 35 -24.5 56t-64.5 21q-38 0 -64 -20t-40 -62h-164q28 110 95.5 161.5t183.5 51.5q113 0 182.5 -56t69.5 -146q0 -75 -45.5 -122t-131.5 -63q81 -27 121.5 -77.5t40.5 -122.5q0 -110 -93.5 -185t-231.5 -75q-135 0 -214 63.5t-79 171.5q0 11 3 30q1 3 1 5z" />
    <glyph glyph-name="questiondown" unicode="&#xbf;" horiz-adv-x="1042" 
d="M567 1456h256l-53 -274h-256zM709 420h245q-18 -217 -143 -333t-340 -116q-196 0 -314 108t-118 286q0 108 49.5 197.5t177.5 199.5l21 18q191 163 209 297h252q-18 -132 -69.5 -226.5t-182.5 -209.5q-20 -17 -59 -48q-144 -118 -144 -210q0 -79 56.5 -129.5t146.5 -50.5
q91 0 147 57t66 160z" />
    <glyph glyph-name="Agrave" unicode="&#xc0;" horiz-adv-x="1286" 
d="M-176 0l817 1456h305l316 -1456h-291l-66 307h-598l-170 -307h-313zM850 578l-111 520l-284 -520h395zM971 1593h-117l-303 350h213z" />
    <glyph glyph-name="Aacute" unicode="&#xc1;" horiz-adv-x="1286" 
d="M-176 0l817 1456h305l316 -1456h-291l-66 307h-598l-170 -307h-313zM850 578l-111 520l-284 -520h395zM809 1593h-131l221 350h213z" />
    <glyph glyph-name="Acircumflex" unicode="&#xc2;" horiz-adv-x="1286" 
d="M-176 0l817 1456h305l316 -1456h-291l-66 307h-598l-170 -307h-313zM850 578l-111 520l-284 -520h395zM1112 1593h-119l-129 201l-217 -201h-131l256 350h211z" />
    <glyph glyph-name="Atilde" unicode="&#xc3;" horiz-adv-x="1286" 
d="M-176 0l817 1456h305l316 -1456h-291l-66 307h-598l-170 -307h-313zM850 578l-111 520l-284 -520h395zM1157 1886q-29 -109 -80.5 -161t-130.5 -52q-20 0 -40 3t-40 9l-57 19q-19 5 -34 7.5t-25 2.5q-32 0 -54.5 -19t-35.5 -57h-107q30 109 81.5 161t129.5 52
q19 0 41.5 -3t44.5 -9l57 -16q9 -3 23 -7q22 -6 29 -6q33 0 56.5 19.5t35.5 56.5h106z" />
    <glyph glyph-name="Adieresis" unicode="&#xc4;" horiz-adv-x="1286" 
d="M-176 0l817 1456h305l316 -1456h-291l-66 307h-598l-170 -307h-313zM850 578l-111 520l-284 -520h395zM901 1640l49 228h205l-49 -228h-205zM553 1640l49 228h205l-49 -228h-205z" />
    <glyph glyph-name="Aring" unicode="&#xc5;" horiz-adv-x="1286" 
d="M698 1729q0 -45 32 -76t77 -31q44 0 75 31t31 76q0 44 -31 76t-75 32q-45 0 -77 -32t-32 -76zM578 1729q0 95 67 162t162 67t161 -67t66 -162q0 -96 -66 -162t-161 -66q-96 0 -162.5 66.5t-66.5 161.5zM-176 0l809 1444h311l318 -1444h-291l-66 307h-598l-170 -307h-313z
M850 578l-111 520l-284 -520h395z" />
    <glyph glyph-name="AE" unicode="&#xc6;" horiz-adv-x="1849" 
d="M905 616l123 592h-65l-402 -592h344zM774 0l80 379h-451l-258 -379h-317l1006 1456h1040l-49 -248h-527l-65 -346h526l-49 -246h-526l-72 -370h526l-47 -246h-817z" />
    <glyph glyph-name="Ccedilla" unicode="&#xc7;" horiz-adv-x="1554" 
d="M1475 461q-95 -231 -291.5 -360.5t-452.5 -129.5q-131 0 -242.5 36t-201.5 108q-122 95 -187 233.5t-65 300.5q0 166 63 320t181 276q110 115 261.5 177.5t321.5 62.5q252 0 434 -137t242 -371h-313q-54 117 -152 177t-237 60q-103 0 -189 -37t-162 -114
q-79 -81 -118 -178t-39 -211q0 -194 116.5 -315t300.5 -121q123 0 228.5 56.5t185.5 166.5h316zM382 -426l43 111q68 -24 124 -35.5t100 -11.5q55 0 87 24t32 66q0 41 -35.5 58t-124.5 17h-39l67 197h91l-33 -94h8q112 0 169.5 -43.5t57.5 -126.5q0 -102 -66 -158.5
t-184 -56.5q-56 0 -128 12.5t-169 40.5z" />
    <glyph glyph-name="Egrave" unicode="&#xc8;" horiz-adv-x="1028" 
d="M-27 0l283 1456h813l-47 -248h-526l-68 -346h526l-49 -246h-524l-72 -370h527l-50 -246h-813zM836 1593h-117l-303 350h213z" />
    <glyph glyph-name="Eacute" unicode="&#xc9;" horiz-adv-x="1028" 
d="M-27 0l283 1456h813l-47 -248h-526l-68 -346h526l-49 -246h-524l-72 -370h527l-50 -246h-813zM674 1593h-131l221 350h213z" />
    <glyph glyph-name="Ecircumflex" unicode="&#xca;" horiz-adv-x="1028" 
d="M-27 0l283 1456h813l-47 -248h-526l-68 -346h526l-49 -246h-524l-72 -370h527l-50 -246h-813zM977 1593h-119l-129 201l-217 -201h-131l256 350h211z" />
    <glyph glyph-name="Edieresis" unicode="&#xcb;" horiz-adv-x="1028" 
d="M-27 0l283 1456h813l-47 -248h-526l-68 -346h526l-49 -246h-524l-72 -370h527l-50 -246h-813zM766 1640l49 228h205l-49 -228h-205zM418 1640l49 228h205l-49 -228h-205z" />
    <glyph glyph-name="Igrave" unicode="&#xcc;" horiz-adv-x="512" 
d="M-25 0l283 1456h285l-283 -1456h-285zM578 1593h-117l-303 350h213z" />
    <glyph glyph-name="Iacute" unicode="&#xcd;" horiz-adv-x="512" 
d="M-25 0l283 1456h285l-283 -1456h-285zM416 1593h-131l221 350h213z" />
    <glyph glyph-name="Icircumflex" unicode="&#xce;" horiz-adv-x="512" 
d="M-25 0l283 1456h285l-283 -1456h-285zM719 1593h-119l-129 201l-217 -201h-131l256 350h211z" />
    <glyph glyph-name="Idieresis" unicode="&#xcf;" horiz-adv-x="512" 
d="M-25 0l283 1456h285l-283 -1456h-285zM508 1640l49 228h205l-49 -228h-205zM160 1640l49 228h205l-49 -228h-205z" />
    <glyph glyph-name="Eth" unicode="&#xd0;" horiz-adv-x="1450" 
d="M717 1456q320 0 496 -166t176 -467q0 -373 -227.5 -598t-604.5 -225h-547l123 641h-151l41 219h151l117 596h426zM655 1225h-120l-72 -365h299l-43 -219h-299l-80 -410h154q262 0 430 159t168 409q0 202 -114.5 313t-322.5 113z" />
    <glyph glyph-name="Ntilde" unicode="&#xd1;" horiz-adv-x="1432" 
d="M-20 0l284 1456h371l338 -1128l221 1128h270l-284 -1456h-371l-334 1135l-227 -1135h-268zM1249 1886q-29 -109 -80.5 -161t-130.5 -52q-20 0 -40 3t-40 9l-57 19q-19 5 -34 7.5t-25 2.5q-32 0 -54.5 -19t-35.5 -57h-107q30 109 81.5 161t129.5 52q19 0 41.5 -3t44.5 -9
l57 -16q9 -3 23 -7q22 -6 29 -6q33 0 56.5 19.5t35.5 56.5h106z" />
    <glyph glyph-name="Ograve" unicode="&#xd2;" horiz-adv-x="1602" 
d="M57 633q0 194 62 353.5t182 275.5q116 111 261 167t317 56q303 0 484 -181.5t181 -486.5q0 -190 -62.5 -350.5t-181.5 -273.5q-115 -111 -261 -167.5t-318 -56.5q-301 0 -482.5 182t-181.5 482zM346 653q0 -186 109.5 -299.5t289.5 -113.5q226 0 368 156t142 405
q0 190 -108.5 301.5t-292.5 111.5q-222 0 -365 -156.5t-143 -404.5zM1059 1593h-117l-303 350h213z" />
    <glyph glyph-name="Oacute" unicode="&#xd3;" horiz-adv-x="1602" 
d="M57 633q0 194 62 353.5t182 275.5q116 111 261 167t317 56q303 0 484 -181.5t181 -486.5q0 -190 -62.5 -350.5t-181.5 -273.5q-115 -111 -261 -167.5t-318 -56.5q-301 0 -482.5 182t-181.5 482zM346 653q0 -186 109.5 -299.5t289.5 -113.5q226 0 368 156t142 405
q0 190 -108.5 301.5t-292.5 111.5q-222 0 -365 -156.5t-143 -404.5zM897 1593h-131l221 350h213z" />
    <glyph glyph-name="Ocircumflex" unicode="&#xd4;" horiz-adv-x="1602" 
d="M57 633q0 194 62 353.5t182 275.5q116 111 261 167t317 56q303 0 484 -181.5t181 -486.5q0 -190 -62.5 -350.5t-181.5 -273.5q-115 -111 -261 -167.5t-318 -56.5q-301 0 -482.5 182t-181.5 482zM346 653q0 -186 109.5 -299.5t289.5 -113.5q226 0 368 156t142 405
q0 190 -108.5 301.5t-292.5 111.5q-222 0 -365 -156.5t-143 -404.5zM1200 1593h-119l-129 201l-217 -201h-131l256 350h211z" />
    <glyph glyph-name="Otilde" unicode="&#xd5;" horiz-adv-x="1602" 
d="M57 633q0 194 62 353.5t182 275.5q116 111 261 167t317 56q303 0 484 -181.5t181 -486.5q0 -190 -62.5 -350.5t-181.5 -273.5q-115 -111 -261 -167.5t-318 -56.5q-301 0 -482.5 182t-181.5 482zM346 653q0 -186 109.5 -299.5t289.5 -113.5q226 0 368 156t142 405
q0 190 -108.5 301.5t-292.5 111.5q-222 0 -365 -156.5t-143 -404.5zM1245 1886q-29 -109 -80.5 -161t-130.5 -52q-20 0 -40 3t-40 9l-57 19q-19 5 -34 7.5t-25 2.5q-32 0 -54.5 -19t-35.5 -57h-107q30 109 81.5 161t129.5 52q19 0 41.5 -3t44.5 -9l57 -16q9 -3 23 -7
q22 -6 29 -6q33 0 56.5 19.5t35.5 56.5h106z" />
    <glyph glyph-name="Odieresis" unicode="&#xd6;" horiz-adv-x="1602" 
d="M57 633q0 194 62 353.5t182 275.5q116 111 261 167t317 56q303 0 484 -181.5t181 -486.5q0 -190 -62.5 -350.5t-181.5 -273.5q-115 -111 -261 -167.5t-318 -56.5q-301 0 -482.5 182t-181.5 482zM346 653q0 -186 109.5 -299.5t289.5 -113.5q226 0 368 156t142 405
q0 190 -108.5 301.5t-292.5 111.5q-222 0 -365 -156.5t-143 -404.5zM989 1640l49 228h205l-49 -228h-205zM641 1640l49 228h205l-49 -228h-205z" />
    <glyph glyph-name="multiply" unicode="&#xd7;" horiz-adv-x="1706" 
d="M403 1188l459 -459l461 459l117 -117l-459 -461l459 -458l-117 -119l-461 461l-459 -461l-116 119l458 458l-458 461z" />
    <glyph glyph-name="Oslash" unicode="&#xd8;" horiz-adv-x="1602" 
d="M1393 1602l178 -138l-174 -202q74 -87 110.5 -197t36.5 -248q0 -376 -228 -612t-593 -236q-112 0 -204 23.5t-165 70.5l-190 -217l-166 150l188 217q-66 87 -98.5 201.5t-32.5 263.5q0 167 71 331t189 273q111 101 254.5 153t313.5 52q97 0 180.5 -20t159.5 -62zM389 449
l639 733q-30 17 -71 26t-99 9q-221 0 -367.5 -159t-146.5 -403q0 -51 11 -102t34 -104zM1200 1036l-649 -747q45 -25 91.5 -37t96.5 -12q225 0 370.5 154.5t145.5 393.5q0 78 -13.5 140.5t-41.5 107.5z" />
    <glyph glyph-name="Ugrave" unicode="&#xd9;" horiz-adv-x="1255" 
d="M1100 578q-67 -348 -196.5 -477.5t-391.5 -129.5q-206 0 -328.5 102t-122.5 273q0 49 7 107.5t20 124.5l172 878h281l-160 -815q-10 -49 -15.5 -96t-5.5 -88q0 -96 52 -149.5t145 -53.5q112 0 171 77.5t110 338.5l153 786h277zM928 1593h-117l-303 350h213z" />
    <glyph glyph-name="Uacute" unicode="&#xda;" horiz-adv-x="1255" 
d="M1100 578q-67 -348 -196.5 -477.5t-391.5 -129.5q-206 0 -328.5 102t-122.5 273q0 49 7 107.5t20 124.5l172 878h281l-160 -815q-10 -49 -15.5 -96t-5.5 -88q0 -96 52 -149.5t145 -53.5q112 0 171 77.5t110 338.5l153 786h277zM766 1593h-131l221 350h213z" />
    <glyph glyph-name="Ucircumflex" unicode="&#xdb;" horiz-adv-x="1255" 
d="M1100 578q-67 -348 -196.5 -477.5t-391.5 -129.5q-206 0 -328.5 102t-122.5 273q0 49 7 107.5t20 124.5l172 878h281l-160 -815q-10 -49 -15.5 -96t-5.5 -88q0 -96 52 -149.5t145 -53.5q112 0 171 77.5t110 338.5l153 786h277zM1069 1593h-119l-129 201l-217 -201h-131
l256 350h211z" />
    <glyph glyph-name="Udieresis" unicode="&#xdc;" horiz-adv-x="1255" 
d="M1100 578q-67 -348 -196.5 -477.5t-391.5 -129.5q-206 0 -328.5 102t-122.5 273q0 49 7 107.5t20 124.5l172 878h281l-160 -815q-10 -49 -15.5 -96t-5.5 -88q0 -96 52 -149.5t145 -53.5q112 0 171 77.5t110 338.5l153 786h277zM858 1640l49 228h205l-49 -228h-205z
M510 1640l49 228h205l-49 -228h-205z" />
    <glyph glyph-name="Yacute" unicode="&#xdd;" horiz-adv-x="1161" 
d="M291 0l112 551l-305 905h283l199 -627l421 627h322l-641 -905l-104 -551h-287zM741 1593h-131l221 350h213z" />
    <glyph glyph-name="Thorn" unicode="&#xde;" horiz-adv-x="1157" 
d="M438 958l-78 -397h146q132 0 201 53.5t69 155.5q0 99 -64 145t-204 46q-28 0 -42 -0.5t-28 -2.5zM-35 0l283 1456h289l-52 -260h99q234 0 360.5 -110.5t126.5 -313.5q0 -104 -38.5 -191t-110.5 -149q-79 -67 -170 -96t-256 -29h-185l-59 -307h-287z" />
    <glyph glyph-name="germandbls" unicode="&#xdf;" horiz-adv-x="1200" 
d="M324 397h149q-2 -10 -3 -18t-1 -14q0 -66 55.5 -110t141.5 -44q78 0 136 66t58 155q0 94 -73 150.5t-195 56.5q-38 0 -57.5 -1.5t-36.5 -4.5l47 246h20q110 0 176 58.5t66 154.5q0 70 -44 114.5t-112 44.5q-77 0 -130.5 -58.5t-74.5 -166.5zM-20 0l206 1063
q42 213 159 320.5t308 107.5q182 0 296 -101.5t114 -263.5q0 -127 -57 -219t-158 -129q128 -27 201 -118.5t73 -223.5q0 -196 -135 -330.5t-334 -134.5q-125 0 -222 45.5t-155 130.5l-28 -147h-268z" />
    <glyph glyph-name="agrave" unicode="&#xe0;" horiz-adv-x="1319" 
d="M844 0l14 76q-57 -53 -127 -79t-156 -26q-228 0 -370 149.5t-142 391.5q0 102 30.5 195t92.5 180q83 115 204.5 176t266.5 61q110 0 203 -42t164 -124l27 142h262l-219 -1100h-250zM668 893q-143 0 -247 -110.5t-104 -266.5q0 -137 79.5 -221t209.5 -84
q145 0 245.5 110.5t100.5 272.5q0 131 -80.5 215t-203.5 84zM940 1243h-117l-303 350h213z" />
    <glyph glyph-name="aacute" unicode="&#xe1;" horiz-adv-x="1319" 
d="M844 0l14 76q-57 -53 -127 -79t-156 -26q-228 0 -370 149.5t-142 391.5q0 102 30.5 195t92.5 180q83 115 204.5 176t266.5 61q110 0 203 -42t164 -124l27 142h262l-219 -1100h-250zM668 893q-143 0 -247 -110.5t-104 -266.5q0 -137 79.5 -221t209.5 -84
q145 0 245.5 110.5t100.5 272.5q0 131 -80.5 215t-203.5 84zM778 1243h-131l221 350h213z" />
    <glyph glyph-name="acircumflex" unicode="&#xe2;" horiz-adv-x="1319" 
d="M844 0l14 76q-57 -53 -127 -79t-156 -26q-228 0 -370 149.5t-142 391.5q0 102 30.5 195t92.5 180q83 115 204.5 176t266.5 61q110 0 203 -42t164 -124l27 142h262l-219 -1100h-250zM668 893q-143 0 -247 -110.5t-104 -266.5q0 -137 79.5 -221t209.5 -84
q145 0 245.5 110.5t100.5 272.5q0 131 -80.5 215t-203.5 84zM1081 1243h-119l-129 201l-217 -201h-131l256 350h211z" />
    <glyph glyph-name="atilde" unicode="&#xe3;" horiz-adv-x="1319" 
d="M844 0l14 76q-57 -53 -127 -79t-156 -26q-228 0 -370 149.5t-142 391.5q0 102 30.5 195t92.5 180q83 115 204.5 176t266.5 61q110 0 203 -42t164 -124l27 142h262l-219 -1100h-250zM668 893q-143 0 -247 -110.5t-104 -266.5q0 -137 79.5 -221t209.5 -84
q145 0 245.5 110.5t100.5 272.5q0 131 -80.5 215t-203.5 84zM1126 1536q-29 -109 -80.5 -161t-130.5 -52q-20 0 -40 3t-40 9l-57 19q-19 5 -34 7.5t-25 2.5q-32 0 -54.5 -19t-35.5 -57h-107q30 109 81.5 161t129.5 52q19 0 41.5 -3t44.5 -9l57 -16q9 -3 23 -7q22 -6 29 -6
q33 0 56.5 19.5t35.5 56.5h106z" />
    <glyph glyph-name="adieresis" unicode="&#xe4;" horiz-adv-x="1319" 
d="M844 0l14 76q-57 -53 -127 -79t-156 -26q-228 0 -370 149.5t-142 391.5q0 102 30.5 195t92.5 180q83 115 204.5 176t266.5 61q110 0 203 -42t164 -124l27 142h262l-219 -1100h-250zM668 893q-143 0 -247 -110.5t-104 -266.5q0 -137 79.5 -221t209.5 -84
q145 0 245.5 110.5t100.5 272.5q0 131 -80.5 215t-203.5 84zM870 1290l49 228h205l-49 -228h-205zM522 1290l49 228h205l-49 -228h-205z" />
    <glyph glyph-name="aring" unicode="&#xe5;" horiz-adv-x="1319" 
d="M672 1407q0 -44 31.5 -75.5t76.5 -31.5t76 31t31 76t-31.5 77t-75.5 32t-76 -32t-32 -77zM551 1407q0 95 67 162t162 67t161.5 -66.5t66.5 -162.5q0 -95 -66 -161t-162 -66q-95 0 -162 66t-67 161zM668 893q-143 0 -247 -110.5t-104 -266.5q0 -137 79.5 -221t209.5 -84
q145 0 245.5 110.5t100.5 272.5q0 131 -80.5 215t-203.5 84zM844 0l14 76q-57 -53 -127 -79t-156 -26q-228 0 -370 149.5t-142 391.5q0 102 30.5 195t92.5 180q83 115 204.5 176t266.5 61q110 0 203 -42t164 -124l27 142h262l-219 -1100h-250z" />
    <glyph glyph-name="ae" unicode="&#xe6;" horiz-adv-x="2134" 
d="M668 893q-143 0 -247 -110.5t-104 -266.5q0 -137 79.5 -221t209.5 -84q145 0 245.5 110.5t100.5 272.5q0 131 -80.5 215t-203.5 84zM844 0l22 86q-58 -59 -129 -87t-162 -28q-228 0 -370 149.5t-142 391.5q0 102 30.5 195t92.5 180q85 115 206.5 176t266.5 61
q102 0 189.5 -36t157.5 -107l34 119h252l-24 -92q65 60 140 90t161 30q211 0 354 -151.5t143 -376.5q0 -36 -2.5 -72t-7.5 -71h-870q24 -121 96 -183.5t186 -62.5q82 0 148 33.5t119 101.5h282q-74 -180 -216 -277.5t-328 -97.5q-104 0 -192.5 28.5t-166.5 86.5l-20 -86
h-250zM1210 672h598q-30 104 -103.5 160.5t-178.5 56.5q-104 0 -185 -56t-131 -161z" />
    <glyph glyph-name="ccedilla" unicode="&#xe7;" horiz-adv-x="1200" 
d="M1151 385q-66 -196 -216.5 -305t-356.5 -109q-235 0 -384 148.5t-149 382.5q0 140 55 264.5t158 216.5q78 70 177 106.5t212 36.5q206 0 347.5 -111.5t181.5 -305.5h-261q-38 87 -107.5 132.5t-164.5 45.5q-151 0 -247.5 -106.5t-96.5 -274.5q0 -131 81 -213t210 -82
q92 0 165 44t124 130h272zM239 -426l43 111q68 -24 124 -35.5t100 -11.5q55 0 87 24t32 66q0 41 -35.5 58t-124.5 17h-39l67 197h91l-33 -94h8q112 0 169.5 -43.5t57.5 -126.5q0 -102 -66 -158.5t-184 -56.5q-56 0 -128 12.5t-169 40.5z" />
    <glyph glyph-name="egrave" unicode="&#xe8;" horiz-adv-x="1241" 
d="M324 672h598q-28 103 -105 160t-190 57q-103 0 -183.5 -57.5t-119.5 -159.5zM1130 346q-74 -181 -219 -278t-342 -97q-232 0 -381 149.5t-149 381.5q0 139 56 263.5t159 217.5q79 71 179 108t214 37q235 0 384 -147.5t149 -380.5q0 -29 -3 -64.5t-10 -78.5h-870
q24 -121 96 -183.5t187 -62.5q82 0 148.5 33.5t119.5 101.5h282zM830 1243h-117l-303 350h213z" />
    <glyph glyph-name="eacute" unicode="&#xe9;" horiz-adv-x="1241" 
d="M324 672h598q-28 103 -105 160t-190 57q-103 0 -183.5 -57.5t-119.5 -159.5zM1130 346q-74 -181 -219 -278t-342 -97q-232 0 -381 149.5t-149 381.5q0 139 56 263.5t159 217.5q79 71 179 108t214 37q235 0 384 -147.5t149 -380.5q0 -29 -3 -64.5t-10 -78.5h-870
q24 -121 96 -183.5t187 -62.5q82 0 148.5 33.5t119.5 101.5h282zM668 1243h-131l221 350h213z" />
    <glyph glyph-name="ecircumflex" unicode="&#xea;" horiz-adv-x="1241" 
d="M324 672h598q-28 103 -105 160t-190 57q-103 0 -183.5 -57.5t-119.5 -159.5zM1130 346q-74 -181 -219 -278t-342 -97q-232 0 -381 149.5t-149 381.5q0 139 56 263.5t159 217.5q79 71 179 108t214 37q235 0 384 -147.5t149 -380.5q0 -29 -3 -64.5t-10 -78.5h-870
q24 -121 96 -183.5t187 -62.5q82 0 148.5 33.5t119.5 101.5h282zM971 1243h-119l-129 201l-217 -201h-131l256 350h211z" />
    <glyph glyph-name="edieresis" unicode="&#xeb;" horiz-adv-x="1241" 
d="M324 672h598q-28 103 -105 160t-190 57q-103 0 -183.5 -57.5t-119.5 -159.5zM1130 346q-74 -181 -219 -278t-342 -97q-232 0 -381 149.5t-149 381.5q0 139 56 263.5t159 217.5q79 71 179 108t214 37q235 0 384 -147.5t149 -380.5q0 -29 -3 -64.5t-10 -78.5h-870
q24 -121 96 -183.5t187 -62.5q82 0 148.5 33.5t119.5 101.5h282zM760 1290l49 228h205l-49 -228h-205zM412 1290l49 228h205l-49 -228h-205z" />
    <glyph glyph-name="igrave" unicode="&#xec;" horiz-adv-x="479" 
d="M2 0l213 1100h254l-213 -1100h-254zM524 1243h-117l-303 350h213z" />
    <glyph glyph-name="iacute" unicode="&#xed;" horiz-adv-x="479" 
d="M2 0l213 1100h254l-213 -1100h-254zM362 1243h-131l221 350h213z" />
    <glyph glyph-name="icircumflex" unicode="&#xee;" horiz-adv-x="479" 
d="M2 0l213 1100h254l-213 -1100h-254zM665 1243h-119l-129 201l-217 -201h-131l256 350h211z" />
    <glyph glyph-name="idieresis" unicode="&#xef;" horiz-adv-x="479" 
d="M2 0l213 1100h254l-213 -1100h-254zM454 1290l49 228h205l-49 -228h-205zM106 1290l49 228h205l-49 -228h-205z" />
    <glyph glyph-name="eth" unicode="&#xf0;" horiz-adv-x="1241" 
d="M790 1074l-79 140l-353 -67l-30 158l303 55l-74 133h246l51 -90l244 43l32 -156l-190 -35l111 -198q70 -129 104.5 -243.5t34.5 -221.5q0 -126 -46.5 -240.5t-135.5 -206.5q-82 -84 -193 -129t-240 -45q-233 0 -381.5 151t-148.5 386q0 141 58.5 263t164.5 204
q73 58 168.5 87.5t208.5 29.5q34 0 71 -5t74 -13zM641 874q-153 0 -247.5 -103.5t-94.5 -274.5q0 -125 80 -205t205 -80q155 0 253.5 104t98.5 267q0 134 -79.5 213t-215.5 79z" />
    <glyph glyph-name="ntilde" unicode="&#xf1;" horiz-adv-x="1194" 
d="M449 1100l-23 -105q63 62 133.5 92.5t149.5 30.5q198 0 298.5 -90t100.5 -268q0 -33 -9.5 -101.5t-27.5 -158.5l-96 -500h-264l112 581q7 34 11 68t4 66q0 87 -44 132.5t-128 45.5q-121 0 -194 -82t-107 -258l-113 -553h-254l223 1100h228zM1030 1536
q-29 -109 -80.5 -161t-130.5 -52q-20 0 -40 3t-40 9l-57 19q-19 5 -34 7.5t-25 2.5q-32 0 -54.5 -19t-35.5 -57h-107q30 109 81.5 161t129.5 52q19 0 41.5 -3t44.5 -9l57 -16q9 -3 23 -7q22 -6 29 -6q33 0 56.5 19.5t35.5 56.5h106z" />
    <glyph glyph-name="ograve" unicode="&#xf2;" horiz-adv-x="1241" 
d="M641 893q-146 0 -244 -110t-98 -277q0 -129 80.5 -212t206.5 -83q147 0 248.5 110t101.5 271q0 136 -81 218.5t-214 82.5zM45 502q0 143 56 268.5t161 218.5q80 71 180 107.5t215 36.5q234 0 383.5 -149t149.5 -382q0 -131 -46.5 -248.5t-133.5 -208.5
q-82 -84 -193.5 -129t-241.5 -45q-232 0 -381 149.5t-149 381.5zM850 1243h-117l-303 350h213z" />
    <glyph glyph-name="oacute" unicode="&#xf3;" horiz-adv-x="1241" 
d="M641 893q-146 0 -244 -110t-98 -277q0 -129 80.5 -212t206.5 -83q147 0 248.5 110t101.5 271q0 136 -81 218.5t-214 82.5zM45 502q0 143 56 268.5t161 218.5q80 71 180 107.5t215 36.5q234 0 383.5 -149t149.5 -382q0 -131 -46.5 -248.5t-133.5 -208.5
q-82 -84 -193.5 -129t-241.5 -45q-232 0 -381 149.5t-149 381.5zM688 1243h-131l221 350h213z" />
    <glyph glyph-name="ocircumflex" unicode="&#xf4;" horiz-adv-x="1241" 
d="M641 893q-146 0 -244 -110t-98 -277q0 -129 80.5 -212t206.5 -83q147 0 248.5 110t101.5 271q0 136 -81 218.5t-214 82.5zM45 502q0 143 56 268.5t161 218.5q80 71 180 107.5t215 36.5q234 0 383.5 -149t149.5 -382q0 -131 -46.5 -248.5t-133.5 -208.5
q-82 -84 -193.5 -129t-241.5 -45q-232 0 -381 149.5t-149 381.5zM991 1243h-119l-129 201l-217 -201h-131l256 350h211z" />
    <glyph glyph-name="otilde" unicode="&#xf5;" horiz-adv-x="1241" 
d="M641 893q-146 0 -244 -110t-98 -277q0 -129 80.5 -212t206.5 -83q147 0 248.5 110t101.5 271q0 136 -81 218.5t-214 82.5zM45 502q0 143 56 268.5t161 218.5q80 71 180 107.5t215 36.5q234 0 383.5 -149t149.5 -382q0 -131 -46.5 -248.5t-133.5 -208.5
q-82 -84 -193.5 -129t-241.5 -45q-232 0 -381 149.5t-149 381.5zM1036 1536q-29 -109 -80.5 -161t-130.5 -52q-20 0 -40 3t-40 9l-57 19q-19 5 -34 7.5t-25 2.5q-32 0 -54.5 -19t-35.5 -57h-107q30 109 81.5 161t129.5 52q19 0 41.5 -3t44.5 -9l57 -16q9 -3 23 -7
q22 -6 29 -6q33 0 56.5 19.5t35.5 56.5h106z" />
    <glyph glyph-name="odieresis" unicode="&#xf6;" horiz-adv-x="1241" 
d="M641 893q-146 0 -244 -110t-98 -277q0 -129 80.5 -212t206.5 -83q147 0 248.5 110t101.5 271q0 136 -81 218.5t-214 82.5zM45 502q0 143 56 268.5t161 218.5q80 71 180 107.5t215 36.5q234 0 383.5 -149t149.5 -382q0 -131 -46.5 -248.5t-133.5 -208.5
q-82 -84 -193.5 -129t-241.5 -45q-232 0 -381 149.5t-149 381.5zM780 1290l49 228h205l-49 -228h-205zM432 1290l49 228h205l-49 -228h-205z" />
    <glyph glyph-name="divide" unicode="&#xf7;" horiz-adv-x="1706" 
d="M854 367q57 0 97 -40.5t40 -97.5q0 -56 -39.5 -95.5t-97.5 -39.5t-97.5 39t-39.5 96t40.5 97.5t96.5 40.5zM254 694h1198v-166h-1198v166zM854 1128q57 0 97 -41t40 -98q0 -56 -39.5 -95.5t-97.5 -39.5t-97.5 39t-39.5 96t40.5 98t96.5 41z" />
    <glyph glyph-name="oslash" unicode="&#xf8;" horiz-adv-x="1241" 
d="M328 369l434 495q-38 13 -67.5 19t-53.5 6q-144 0 -242 -106.5t-98 -266.5q0 -36 6.5 -72t20.5 -75zM895 745l-442 -505q42 -15 76 -22t63 -7q145 0 244.5 111t99.5 276q0 43 -10 80t-31 67zM156 166q-56 72 -82.5 156.5t-26.5 187.5t31.5 197t93.5 178q88 121 213 182
t285 61q66 0 130 -16.5t132 -50.5l149 172l136 -119l-148 -170q60 -77 90.5 -163t30.5 -179q0 -127 -42.5 -239t-123.5 -199q-89 -97 -198 -145t-238 -48q-86 0 -160 18.5t-141 55.5l-168 -192l-127 122z" />
    <glyph glyph-name="ugrave" unicode="&#xf9;" horiz-adv-x="1194" 
d="M768 90q-64 -61 -143.5 -91t-178.5 -30q-171 0 -265.5 93.5t-94.5 263.5q0 42 8.5 105.5t26.5 156.5l98 512h266l-114 -596q-9 -42 -13 -74.5t-4 -58.5q0 -87 44.5 -131.5t129.5 -44.5q121 0 194 81t107 256l113 568h252l-219 -1100h-227zM871 1243h-117l-303 350h213z
" />
    <glyph glyph-name="uacute" unicode="&#xfa;" horiz-adv-x="1194" 
d="M768 90q-64 -61 -143.5 -91t-178.5 -30q-171 0 -265.5 93.5t-94.5 263.5q0 42 8.5 105.5t26.5 156.5l98 512h266l-114 -596q-9 -42 -13 -74.5t-4 -58.5q0 -87 44.5 -131.5t129.5 -44.5q121 0 194 81t107 256l113 568h252l-219 -1100h-227zM709 1243h-131l221 350h213z
" />
    <glyph glyph-name="ucircumflex" unicode="&#xfb;" horiz-adv-x="1194" 
d="M768 90q-64 -61 -143.5 -91t-178.5 -30q-171 0 -265.5 93.5t-94.5 263.5q0 42 8.5 105.5t26.5 156.5l98 512h266l-114 -596q-9 -42 -13 -74.5t-4 -58.5q0 -87 44.5 -131.5t129.5 -44.5q121 0 194 81t107 256l113 568h252l-219 -1100h-227zM1012 1243h-119l-129 201
l-217 -201h-131l256 350h211z" />
    <glyph glyph-name="udieresis" unicode="&#xfc;" horiz-adv-x="1194" 
d="M768 90q-64 -61 -143.5 -91t-178.5 -30q-171 0 -265.5 93.5t-94.5 263.5q0 42 8.5 105.5t26.5 156.5l98 512h266l-114 -596q-9 -42 -13 -74.5t-4 -58.5q0 -87 44.5 -131.5t129.5 -44.5q121 0 194 81t107 256l113 568h252l-219 -1100h-227zM801 1290l49 228h205l-49 -228
h-205zM453 1290l49 228h205l-49 -228h-205z" />
    <glyph glyph-name="yacute" unicode="&#xfd;" horiz-adv-x="1053" 
d="M-45 -356l283 475l-199 981h272l131 -692l420 692h287l-897 -1456h-297zM573 1243h-131l221 350h213z" />
    <glyph glyph-name="thorn" unicode="&#xfe;" horiz-adv-x="1319" 
d="M354 508q0 -131 79.5 -214t205.5 -83q146 0 247 110.5t101 270.5q0 134 -80 215.5t-213 81.5q-145 0 -242.5 -108.5t-97.5 -272.5zM276 1456h248l-82 -426q65 46 139 69t158 23q218 0 360 -148t142 -374q0 -129 -46.5 -247t-133.5 -208q-84 -86 -194 -130t-244 -44
q-128 0 -210 34t-147 112l-92 -473h-246z" />
    <glyph glyph-name="ydieresis" unicode="&#xff;" horiz-adv-x="1053" 
d="M-45 -356l283 475l-199 981h272l131 -692l420 692h287l-897 -1456h-297zM665 1290l49 228h205l-49 -228h-205zM317 1290l49 228h205l-49 -228h-205z" />
    <glyph glyph-name="Cacute" unicode="&#x106;" horiz-adv-x="1554" 
d="M1475 461q-95 -231 -291.5 -360.5t-452.5 -129.5q-131 0 -242.5 36t-201.5 108q-122 95 -187 233.5t-65 300.5q0 166 63 320t181 276q110 115 261.5 177.5t321.5 62.5q252 0 434 -137t242 -371h-313q-54 117 -152 177t-237 60q-103 0 -189 -37t-162 -114
q-79 -81 -118 -178t-39 -211q0 -194 116.5 -315t300.5 -121q123 0 228.5 56.5t185.5 166.5h316zM883 1593h-131l221 350h213z" />
    <glyph glyph-name="cacute" unicode="&#x107;" horiz-adv-x="1200" 
d="M1151 385q-66 -196 -216.5 -305t-356.5 -109q-235 0 -384 148.5t-149 382.5q0 140 55 264.5t158 216.5q78 70 177 106.5t212 36.5q206 0 347.5 -111.5t181.5 -305.5h-261q-38 87 -107.5 132.5t-164.5 45.5q-151 0 -247.5 -106.5t-96.5 -274.5q0 -131 81 -213t210 -82
q92 0 165 44t124 130h272zM663 1243h-131l221 350h213z" />
    <glyph glyph-name="Ccaron" unicode="&#x10c;" horiz-adv-x="1554" 
d="M1475 461q-95 -231 -291.5 -360.5t-452.5 -129.5q-131 0 -242.5 36t-201.5 108q-122 95 -187 233.5t-65 300.5q0 166 63 320t181 276q110 115 261.5 177.5t321.5 62.5q252 0 434 -137t242 -371h-313q-54 117 -152 177t-237 60q-103 0 -189 -37t-162 -114
q-79 -81 -118 -178t-39 -211q0 -194 116.5 -315t300.5 -121q123 0 228.5 56.5t185.5 166.5h316zM660 1943h119l129 -200l217 200h131l-256 -350h-211z" />
    <glyph glyph-name="ccaron" unicode="&#x10d;" horiz-adv-x="1200" 
d="M1151 385q-66 -196 -216.5 -305t-356.5 -109q-235 0 -384 148.5t-149 382.5q0 140 55 264.5t158 216.5q78 70 177 106.5t212 36.5q206 0 347.5 -111.5t181.5 -305.5h-261q-38 87 -107.5 132.5t-164.5 45.5q-151 0 -247.5 -106.5t-96.5 -274.5q0 -131 81 -213t210 -82
q92 0 165 44t124 130h272zM440 1593h119l129 -200l217 200h131l-256 -350h-211z" />
    <glyph glyph-name="dcroat" unicode="&#x111;" horiz-adv-x="1346" 
d="M844 0l14 76q-60 -54 -128.5 -79.5t-154.5 -25.5q-228 0 -370 150t-142 393q0 246 172.5 418t419.5 172q111 0 204 -41.5t163 -122.5l45 242h-297l27 143h297l24 131h258l-24 -131h161l-26 -143h-164l-227 -1182h-252zM657 872q-140 0 -240 -105t-100 -253
q0 -135 80 -219t209 -84q140 0 242 107.5t102 256.5q0 130 -81.5 213.5t-206.5 83.5h-5z" />
    <glyph glyph-name="Gbreve" unicode="&#x11e;" horiz-adv-x="1602" 
d="M1544 760q-29 -364 -251 -577.5t-572 -213.5q-301 0 -482.5 181.5t-181.5 482.5q0 149 37.5 278.5t110.5 235.5q112 162 285.5 250t379.5 88q255 0 424 -123t224 -346h-314q-39 93 -131.5 145.5t-218.5 52.5q-222 0 -365 -156.5t-143 -404.5q0 -188 110 -299.5
t294 -111.5q142 0 259 71t183 197h-590l49 250h893zM739 1914l113 1v-6q0 -73 35 -105.5t114 -32.5q82 0 137 35.5t86 108.5h117q-42 -145 -131 -218t-225 -73q-126 0 -187 61.5t-61 186.5q0 17 0.5 26.5t1.5 15.5z" />
    <glyph glyph-name="gbreve" unicode="&#x11f;" horiz-adv-x="1319" 
d="M1090 -14q-44 -212 -176 -313t-367 -101q-210 0 -354 98.5t-168 257.5h264q35 -71 103 -106t169 -35q137 0 205.5 66.5t91.5 222.5q-57 -53 -127 -79t-156 -26q-228 0 -370 149.5t-142 391.5q0 102 30.5 195t92.5 180q83 115 204.5 176t266.5 61q110 0 203 -42t164 -124
l27 142h262zM668 893q-143 0 -247 -110.5t-104 -266.5q0 -137 79.5 -221t209.5 -84q145 0 245.5 110.5t100.5 272.5q0 131 -80.5 215t-203.5 84zM485 1564l113 1v-6q0 -73 35 -105.5t114 -32.5q82 0 137 35.5t86 108.5h117q-42 -145 -131 -218t-225 -73q-126 0 -187 61.5
t-61 186.5q0 17 0.5 26.5t1.5 15.5z" />
    <glyph glyph-name="Idotaccent" unicode="&#x130;" horiz-adv-x="512" 
d="M-25 0l283 1456h285l-283 -1456h-285zM330 1638l51 240h213l-49 -240h-215z" />
    <glyph glyph-name="dotlessi" unicode="&#x131;" horiz-adv-x="479" 
d="M2 0l213 1100h254l-213 -1100h-254z" />
    <glyph glyph-name="Lslash" unicode="&#x141;" horiz-adv-x="1020" 
d="M49 0l103 532l-158 -90l47 248l162 94l129 672h282l-104 -553l235 139l-47 -249l-237 -136l-80 -407h477l-47 -250h-762z" />
    <glyph glyph-name="lslash" unicode="&#x142;" horiz-adv-x="537" 
d="M29 0l106 551l-168 -96l39 211l172 100l133 690h256l-112 -594l166 96l-37 -210l-172 -101l-127 -647h-256z" />
    <glyph glyph-name="OE" unicode="&#x152;" horiz-adv-x="2171" 
d="M1634 1208l-59 -346h524l-47 -246h-526l-72 -370h526l-49 -246h-786l16 90q-97 -60 -212.5 -90.5t-243.5 -30.5q-289 0 -468.5 183.5t-179.5 480.5q0 149 37.5 278.5t110.5 235.5q112 162 285.5 250t379.5 88q149 0 266 -41.5t205 -124.5l29 137h844l-47 -248h-533z
M346 653q0 -186 109.5 -299.5t289.5 -113.5q226 0 369 156t143 405q0 189 -109 301t-294 112q-222 0 -365 -156.5t-143 -404.5z" />
    <glyph glyph-name="oe" unicode="&#x153;" horiz-adv-x="2134" 
d="M1210 672h598q-30 104 -103.5 160.5t-178.5 56.5q-103 0 -184 -55.5t-132 -161.5zM641 889q-146 0 -243 -109t-97 -276q0 -129 80 -211t205 -82q147 0 248.5 109t101.5 270q0 134 -81.5 216.5t-213.5 82.5zM1032 172q-87 -101 -198.5 -151t-249.5 -50q-237 0 -387 148
t-150 383q0 139 56 265t159 218q81 71 181 107t216 36q135 0 240.5 -50.5t185.5 -153.5q85 100 201.5 152t253.5 52q230 0 378 -148.5t148 -379.5q0 -36 -2.5 -72t-7.5 -71h-870q24 -121 96 -183.5t186 -62.5q82 0 148 33.5t119 101.5h282q-75 -182 -219 -278.5t-342 -96.5
q-132 0 -242 52t-182 149z" />
    <glyph glyph-name="Scedilla" unicode="&#x15e;" horiz-adv-x="1100" 
d="M1060 1063h-280v20q0 77 -41 121.5t-110 44.5q-71 0 -118.5 -47t-47.5 -115q0 -91 207 -218q50 -30 78 -48q133 -85 185 -172t52 -217q0 -201 -138.5 -331t-352.5 -130q-226 0 -345.5 119.5t-119.5 343.5v33h278q0 -6 -1 -16t-1 -15q0 -95 50 -149t139 -54q86 0 141 56
t55 143q0 61 -28 102.5t-121 98.5l-54 30q-150 85 -217 158q-47 51 -72.5 115.5t-25.5 134.5q0 185 128.5 299.5t336.5 114.5q199 0 312.5 -100.5t113.5 -274.5q0 -19 -0.5 -28.5t-2.5 -18.5zM73 -426l43 111q68 -24 124 -35.5t100 -11.5q55 0 87 24t32 66q0 41 -35.5 58
t-124.5 17h-39l67 197h91l-33 -94h8q112 0 169.5 -43.5t57.5 -126.5q0 -102 -66 -158.5t-184 -56.5q-56 0 -128 12.5t-169 40.5z" />
    <glyph glyph-name="scedilla" unicode="&#x15f;" horiz-adv-x="901" 
d="M25 362h260v-6q0 -72 33.5 -111.5t93.5 -39.5q47 0 77.5 29.5t30.5 74.5q0 37 -24 67.5t-82 67.5q-31 21 -85 54q-99 62 -120 86q-41 46 -59.5 93t-18.5 101q0 147 107 246.5t268 99.5q153 0 248.5 -91t95.5 -238v-17l-260 1q-2 61 -26.5 92.5t-69.5 31.5
q-41 0 -70 -26.5t-29 -63.5q0 -58 129 -137q21 -13 34 -21q130 -81 181.5 -152t51.5 -163q0 -158 -109 -263.5t-274 -105.5q-179 0 -282 94.5t-103 258.5q0 5 1 18t1 20zM2 -426l43 111q68 -24 124 -35.5t100 -11.5q55 0 87 24t32 66q0 41 -35.5 58t-124.5 17h-39l67 197h91
l-33 -94h8q112 0 169.5 -43.5t57.5 -126.5q0 -102 -66 -158.5t-184 -56.5q-56 0 -128 12.5t-169 40.5z" />
    <glyph glyph-name="Scaron" unicode="&#x160;" horiz-adv-x="1100" 
d="M1060 1063h-280v20q0 77 -41 121.5t-110 44.5q-71 0 -118.5 -47t-47.5 -115q0 -91 207 -218q50 -30 78 -48q133 -85 185 -172t52 -217q0 -201 -138.5 -331t-352.5 -130q-226 0 -345.5 119.5t-119.5 343.5v33h278q0 -6 -1 -16t-1 -15q0 -95 50 -149t139 -54q86 0 141 56
t55 143q0 61 -28 102.5t-121 98.5l-54 30q-150 85 -217 158q-47 51 -72.5 115.5t-25.5 134.5q0 185 128.5 299.5t336.5 114.5q199 0 312.5 -100.5t113.5 -274.5q0 -19 -0.5 -28.5t-2.5 -18.5zM488 1943h119l129 -200l217 200h131l-256 -350h-211z" />
    <glyph glyph-name="scaron" unicode="&#x161;" horiz-adv-x="901" 
d="M25 362h260v-6q0 -72 33.5 -111.5t93.5 -39.5q47 0 77.5 29.5t30.5 74.5q0 37 -24 67.5t-82 67.5q-31 21 -85 54q-99 62 -120 86q-41 46 -59.5 93t-18.5 101q0 147 107 246.5t268 99.5q153 0 248.5 -91t95.5 -238v-17l-260 1q-2 61 -26.5 92.5t-69.5 31.5
q-41 0 -70 -26.5t-29 -63.5q0 -58 129 -137q21 -13 34 -21q130 -81 181.5 -152t51.5 -163q0 -158 -109 -263.5t-274 -105.5q-179 0 -282 94.5t-103 258.5q0 5 1 18t1 20zM275 1593h119l129 -200l217 200h131l-256 -350h-211z" />
    <glyph glyph-name="Ydieresis" unicode="&#x178;" horiz-adv-x="1161" 
d="M291 0l112 551l-305 905h283l199 -627l421 627h322l-641 -905l-104 -551h-287zM833 1640l49 228h205l-49 -228h-205zM485 1640l49 228h205l-49 -228h-205z" />
    <glyph glyph-name="Zcaron" unicode="&#x17d;" horiz-adv-x="1200" 
d="M-23 0l43 227l777 981h-572l47 248h920l-43 -221l-780 -979h647l-49 -256h-990zM537 1943h119l129 -200l217 200h131l-256 -350h-211z" />
    <glyph glyph-name="zcaron" unicode="&#x17e;" horiz-adv-x="934" 
d="M-37 0l41 227l563 637h-444l43 236h780l-39 -221l-565 -643h504l-41 -236h-842zM291 1593h119l129 -200l217 200h131l-256 -350h-211z" />
    <glyph glyph-name="florin" unicode="&#x192;" horiz-adv-x="1190" 
d="M651 -45q-18 -210 -113 -292.5t-319 -82.5q-39 0 -59 0.5t-39 2.5l22 255q9 0 23.5 -1t19.5 -1q117 0 160 40t53 169l52 617h-244l20 233h244l16 172q18 170 48.5 238t91.5 112q46 34 123.5 51t185.5 17q34 0 51.5 -0.5t34.5 -2.5l-23 -253h-49q-111 0 -154 -41t-53 -168
l-10 -125h264l-20 -233h-264z" />
    <glyph glyph-name="circumflex" unicode="&#x2c6;" 
d="M862 1243h-119l-129 201l-217 -201h-131l256 350h211z" />
    <glyph glyph-name="caron" unicode="&#x2c7;" 
d="M336 1593h119l129 -200l217 200h131l-256 -350h-211z" />
    <glyph glyph-name="breve" unicode="&#x2d8;" 
d="M338 1564l113 1v-6q0 -73 35 -105.5t114 -32.5q82 0 137 35.5t86 108.5h117q-42 -145 -131 -218t-225 -73q-126 0 -187 61.5t-61 186.5q0 17 0.5 26.5t1.5 15.5z" />
    <glyph glyph-name="dotaccent" unicode="&#x2d9;" 
d="M473 1288l51 240h213l-49 -240h-215z" />
    <glyph glyph-name="ring" unicode="&#x2da;" 
d="M451 1481q0 -57 40 -96t97 -39t96 39t39 96q0 58 -39 97.5t-96 39.5q-58 0 -97 -39.5t-40 -97.5zM330 1483q0 107 74 181.5t182 74.5t183 -74.5t75 -181.5q0 -109 -74.5 -183.5t-183.5 -74.5t-182.5 74t-73.5 184z" />
    <glyph glyph-name="ogonek" unicode="&#x2db;" 
d="M455 0q-69 -59 -100 -110t-31 -103q0 -43 20 -61.5t68 -18.5h108l-33 -156h-77q-119 0 -175.5 44t-56.5 137q0 64 46 129.5t143 138.5h88z" />
    <glyph glyph-name="tilde" unicode="&#x2dc;" 
d="M907 1536q-29 -109 -80.5 -161t-130.5 -52q-20 0 -40 3t-40 9l-57 19q-19 5 -34 7.5t-25 2.5q-32 0 -54.5 -19t-35.5 -57h-107q30 109 81.5 161t129.5 52q19 0 41.5 -3t44.5 -9l57 -16q9 -3 23 -7q22 -6 29 -6q33 0 56.5 19.5t35.5 56.5h106z" />
    <glyph glyph-name="hungarumlaut" unicode="&#x2dd;" 
d="M825 1593h189l-271 -350h-104zM537 1593h186l-231 -350h-105z" />
    <glyph glyph-name="Omega" unicode="&#x3a9;" horiz-adv-x="1569" 
d="M1194 213h305v-213h-602v229q160 94 242 244.5t82 351.5q0 210 -121 341.5t-316 131.5q-197 0 -316.5 -132.5t-119.5 -352.5q0 -191 84 -342t240 -242v-229h-602v213h305q-144 130 -211.5 274t-67.5 322q0 314 190.5 508t497.5 194q303 0 496 -192.5t193 -493.5
q0 -190 -65.5 -333t-213.5 -279z" />
    <glyph glyph-name="pi" unicode="&#x3c0;" horiz-adv-x="1368" 
d="M360 889h-45q-54 0 -83.5 -31.5t-39.5 -99.5h-174q28 187 100 255t242 68h953l-39 -192h-193l-84 -437q-2 -13 -8 -41q-22 -113 -22 -147q0 -58 23 -82t77 -24q18 0 42.5 2.5t59.5 7.5l-34 -168q-29 -8 -61 -12t-75 -4q-139 0 -202.5 48t-63.5 154q0 77 52 344l1 6
l70 353h-268l-174 -889h-226z" />
    <glyph glyph-name="endash" unicode="&#x2013;" 
d="M1024 647l-39 -194h-985l39 194h985z" />
    <glyph glyph-name="emdash" unicode="&#x2014;" horiz-adv-x="2048" 
d="M2066 647l-36 -194h-2048l36 194h2048z" />
    <glyph glyph-name="quoteleft" unicode="&#x2018;" horiz-adv-x="487" 
d="M475 1327q-49 -11 -76 -41.5t-34 -85.5h94l-53 -276h-256l53 272q29 157 95.5 218.5t207.5 70.5z" />
    <glyph glyph-name="quoteright" unicode="&#x2019;" horiz-adv-x="487" 
d="M182 1053q49 10 75 40.5t34 86.5h-92l51 276h256l-51 -272q-30 -157 -97 -218.5t-208 -70.5z" />
    <glyph glyph-name="quotesinglbase" unicode="&#x201a;" horiz-adv-x="487" 
d="M-33 -129q49 11 76 42.5t35 86.5h-94l53 274h256l-53 -272q-30 -156 -96 -217t-207 -70z" />
    <glyph glyph-name="quotedblleft" unicode="&#x201c;" horiz-adv-x="868" 
d="M854 1327q-50 -11 -76.5 -41.5t-34.5 -85.5h95l-54 -276h-256l54 272q29 157 95.5 218.5t207.5 70.5zM475 1327q-49 -11 -76 -41.5t-34 -85.5h94l-53 -276h-256l53 272q29 157 95.5 218.5t207.5 70.5z" />
    <glyph glyph-name="quotedblright" unicode="&#x201d;" horiz-adv-x="868" 
d="M561 1053q49 10 75 40.5t34 86.5h-95l54 276h256l-51 -272q-30 -157 -97 -218.5t-209 -70.5zM182 1053q49 10 75 40.5t34 86.5h-94l53 276h256l-51 -272q-30 -157 -97 -218.5t-208 -70.5z" />
    <glyph glyph-name="quotedblbase" unicode="&#x201e;" horiz-adv-x="868" 
d="M346 -129q49 11 76 42.5t35 86.5h-95l54 274h256l-54 -272q-29 -156 -95 -217t-208 -70zM-33 -129q49 11 75 42t34 87h-92l53 274h256l-53 -272q-30 -156 -96 -217t-207 -70z" />
    <glyph glyph-name="dagger" unicode="&#x2020;" 
d="M240 -229l190 1075h-326l29 178h334l74 430h233l-76 -430h338l-26 -180h-340l-181 -1073h-249z" />
    <glyph glyph-name="daggerdbl" unicode="&#x2021;" 
d="M233 -229l68 381h-326l29 178h332l96 565h-326l29 178h332l68 381h233l-70 -381h340l-26 -178h-340l-105 -565h340l-26 -178h-340l-60 -381h-248z" />
    <glyph glyph-name="bullet" unicode="&#x2022;" horiz-adv-x="1208" 
d="M307 762q0 123 87 209t210 86q122 0 208.5 -86.5t86.5 -208.5t-87.5 -209.5t-209.5 -87.5q-123 0 -209 87t-86 210z" />
    <glyph glyph-name="ellipsis" unicode="&#x2026;" horiz-adv-x="2048" 
d="M365 0h-256l53 274h256zM1047 0h-256l53 274h256zM1731 0h-256l53 274h256z" />
    <glyph glyph-name="perthousand" unicode="&#x2030;" horiz-adv-x="2650" 
d="M279 1126q0 -70 48 -117.5t119 -47.5t119.5 47.5t48.5 117.5q0 71 -48.5 119.5t-119.5 48.5q-70 0 -118.5 -48.5t-48.5 -119.5zM88 1126q0 73 27 138.5t78 115.5q50 51 115.5 78t137.5 27q73 0 138.5 -27t115.5 -78q51 -50 78 -115.5t27 -138.5t-26.5 -137.5
t-78.5 -116.5q-50 -50 -115.5 -77t-138.5 -27q-72 0 -137.5 27t-115.5 77q-51 51 -78 116.5t-27 137.5zM1204 1485h162l-778 -1516h-162zM1176 330q0 -71 48.5 -119.5t118.5 -48.5q71 0 118.5 48.5t47.5 119.5t-47.5 119.5t-118.5 48.5q-70 0 -118.5 -49t-48.5 -119z
M983 330q0 71 27.5 136.5t79.5 117.5q50 50 115.5 77t137.5 27t136.5 -26.5t115.5 -77.5q52 -52 79.5 -117.5t27.5 -136.5q0 -72 -27.5 -137t-79.5 -117q-51 -51 -115.5 -78t-136.5 -27t-137.5 27t-115.5 78q-52 51 -79.5 116.5t-27.5 137.5zM2038 330q0 -71 48.5 -119.5
t119.5 -48.5q70 0 119 48.5t49 119.5q0 70 -49 119t-119 49q-71 0 -119.5 -49t-48.5 -119zM1847 330q0 72 27 137.5t78 116.5q50 50 115.5 77t138.5 27q72 0 137.5 -27t116.5 -77q50 -51 77 -116.5t27 -137.5q0 -73 -26.5 -138t-77.5 -116t-116.5 -78t-137.5 -27
q-73 0 -138.5 27t-115.5 78q-51 50 -78 115.5t-27 138.5z" />
    <glyph glyph-name="guilsinglleft" unicode="&#x2039;" horiz-adv-x="725" 
d="M158 549l278 313h199l-279 -315l201 -309h-199z" />
    <glyph glyph-name="guilsinglright" unicode="&#x203a;" horiz-adv-x="725" 
d="M571 549l-278 -311h-199l279 311l-201 313h199z" />
    <glyph glyph-name="franc" unicode="&#x20a3;" horiz-adv-x="1792" 
d="M-25 0l283 1456h784l-49 -248h-497l-68 -346h498l-47 -246h-498l-119 -616h-287zM1016 0l213 1100h234l-29 -146q70 92 161.5 135.5t215.5 43.5h8l-49 -258q-177 -3 -260 -71.5t-119 -248.5l-109 -555h-266z" />
    <glyph glyph-name="trademark" unicode="&#x2122;" horiz-adv-x="1706" 
d="M809 1460h170l141 -360l133 360h170v-542h-114v428l-160 -428h-59l-166 428v-428h-115v542zM225 1460h467v-94h-168v-448h-129v448h-170v94z" />
    <glyph glyph-name="partialdiff" unicode="&#x2202;" horiz-adv-x="1075" 
d="M758 639q17 103 26 186.5t9 147.5q0 120 -29 174.5t-92 54.5q-62 0 -147 -58.5t-122 -58.5t-64.5 26t-27.5 60q0 66 79 115t200 49q176 0 287.5 -159t111.5 -422q0 -338 -150 -558.5t-376 -220.5q-161 0 -266 112t-105 286q0 193 113 322.5t278 129.5q101 0 167.5 -45
t107.5 -141zM705 504q0 116 -41 178.5t-117 62.5q-105 0 -174.5 -131.5t-69.5 -337.5q0 -116 40.5 -177.5t117.5 -61.5q105 0 174.5 132.5t69.5 334.5z" />
    <glyph glyph-name="Delta" unicode="&#x2206;" horiz-adv-x="1395" 
d="M698 1196l-379 -983h756zM569 1473h256l574 -1473h-1403z" />
    <glyph glyph-name="product" unicode="&#x220f;" horiz-adv-x="1579" 
d="M154 1473h1267v-1866h-286v1622h-695v-1622h-286v1866z" />
    <glyph glyph-name="summation" unicode="&#x2211;" horiz-adv-x="1421" 
d="M61 1473h1280v-226h-921l647 -684l-661 -729h974v-227h-1347v160l712 786l-684 719v201z" />
    <glyph glyph-name="minus" unicode="&#x2212;" horiz-adv-x="1706" 
d="M254 696h1198v-170h-1198v170z" />
    <glyph glyph-name="fraction" unicode="&#x2215;" horiz-adv-x="342" 
d="M537 1485h145l-875 -1516h-149z" />
    <glyph glyph-name="periodcentered" unicode="&#x2219;" horiz-adv-x="596" 
d="M166 729q0 57 40 96t97 39t96 -39t39 -96t-39 -97t-96 -40t-97 39.5t-40 97.5z" />
    <glyph glyph-name="radical" unicode="&#x221a;" horiz-adv-x="1323" 
d="M1128 1675h197v-110h-108l-594 -1606h-82l-316 872l-131 -49l-28 95l305 108l247 -688z" />
    <glyph glyph-name="infinity" unicode="&#x221e;" horiz-adv-x="1706" 
d="M928 559q45 -81 109.5 -122.5t146.5 -41.5q97 0 159 61.5t62 157.5q0 95 -57 158.5t-142 63.5q-78 0 -142 -63.5t-136 -213.5zM780 662q-46 81 -111 123t-145 42q-98 0 -159.5 -62t-61.5 -159q0 -94 56.5 -156.5t140.5 -62.5q80 0 144.5 62.5t135.5 212.5zM862 471
q-71 -135 -148.5 -197.5t-172.5 -62.5q-137 0 -232.5 114.5t-95.5 284.5q0 179 85 289.5t220 110.5q93 0 168.5 -60t157.5 -200q71 139 149.5 200.5t184.5 61.5q127 0 222 -116t95 -284q0 -178 -84.5 -288.5t-220.5 -110.5q-92 0 -166.5 57.5t-161.5 200.5z" />
    <glyph glyph-name="integral" unicode="&#x222b;" horiz-adv-x="1120" 
d="M324 -258q106 0 122 692q2 81 3 123q13 538 113 766.5t312 228.5q87 0 143 -45.5t56 -111.5q0 -61 -34 -95t-95 -34q-45 0 -74.5 22.5t-40.5 65.5q-4 17 -6 45q-3 40 -26 41q-101 0 -119 -615q-5 -161 -8 -249q-10 -280 -30.5 -427t-59.5 -245q-55 -136 -139.5 -205.5
t-194.5 -69.5q-87 0 -142 44t-55 112q0 63 35.5 97t99.5 34q39 0 66 -18t41 -54q6 -16 9 -59t24 -43z" />
    <glyph glyph-name="approxequal" unicode="&#x2248;" horiz-adv-x="1706" 
d="M1530 592v-186q-107 -73 -200 -106.5t-189 -33.5q-89 0 -279.5 66.5t-298.5 66.5q-84 0 -173.5 -36t-211.5 -121v184q112 75 206.5 110t180.5 35q118 0 309 -67.5t277 -67.5q83 0 172 36.5t207 119.5zM1530 979v-184q-109 -75 -201.5 -108.5t-187.5 -33.5
q-88 0 -278.5 67.5t-299.5 67.5q-82 0 -170 -35t-215 -122v184q109 73 205 109.5t182 36.5q120 0 310 -68t268 -68q92 0 181 35t206 119z" />
    <glyph glyph-name="notequal" unicode="&#x2260;" horiz-adv-x="1706" 
d="M1204 1212l123 -100l-170 -215h295v-162h-403l-197 -250h600v-161h-707l-249 -314l-123 99l170 215h-289v161h393l199 250h-592v162h700z" />
    <glyph glyph-name="lessequal" unicode="&#x2264;" horiz-adv-x="1706" 
d="M260 178h1186v-166h-1186v166zM1446 1223v-176l-889 -287l889 -287v-176l-1186 389v145z" />
    <glyph glyph-name="greaterequal" unicode="&#x2265;" horiz-adv-x="1706" 
d="M260 178h1188v-166h-1188v166zM260 1223l1186 -392v-145l-1186 -389v176l891 287l-891 287v176z" />
    <glyph glyph-name="lozenge" unicode="&#x25ca;" horiz-adv-x="1012" 
d="M506 1409l-385 -817l385 -825l385 825zM506 1653l500 -1061l-500 -1069l-500 1069z" />
    <glyph glyph-name="apple" unicode="&#xf000;" horiz-adv-x="1618" 
d="M836 1216q-1 6 -1.5 14t-0.5 23q0 124 95 229.5t236 131.5q1 -10 1.5 -23t0.5 -39q0 -131 -103.5 -234.5t-203.5 -103.5h-8q-3 0 -7.5 1t-8.5 1zM1505 403q-114 -247 -205 -342.5t-204 -95.5q-50 0 -131.5 33t-122.5 33q-45 0 -131 -33t-127 -33q-64 0 -128.5 44
t-129.5 132q-102 140 -157.5 295.5t-55.5 300.5q0 219 125 356.5t323 137.5q68 0 155 -34t124 -34q34 0 121.5 35t152.5 35q110 0 198 -40t161 -124q-102 -65 -151.5 -145.5t-49.5 -182.5q0 -113 60 -200t173 -138z" />
    <glyph glyph-name="fi" unicode="&#xf001;" horiz-adv-x="1096" 
d="M842 1217l47 239h254l-47 -239h-254zM606 0l213 1100h254l-213 -1100h-254zM63 0l168 868h-159l45 230h159q30 195 134.5 285t304.5 90q28 -1 86 -4q6 0 10 -1l-45 -235h-6q-43 4 -62 4q-80 0 -118 -31.5t-50 -107.5h166l-45 -230h-166l-170 -868h-252z" />
    <glyph glyph-name="fl" unicode="&#xf002;" horiz-adv-x="1096" 
d="M606 0l283 1456h256l-283 -1456h-256zM63 0l168 868h-159l45 230h159q30 195 134.5 285t304.5 90q28 -1 86 -4q6 0 10 -1l-45 -235h-6q-43 4 -62 4q-80 0 -118 -31.5t-50 -107.5h166l-45 -230h-166l-170 -868h-252z" />
    </font>
</defs>
</svg>
